<svg width="267" height="60" viewBox="0 0 267 60" fill="none" xmlns="http://www.w3.org/2000/svg">
<path d="M73.261 29.0518C77.3098 29.0518 80.0275 30.882 81.6913 33.156V0.76577C81.6913 0.155679 80.9703 -0.232559 80.4712 0.15568L40.4825 29.3846H41.5363C45.696 29.3846 47.8036 32.0468 47.8036 34.9308C47.8036 37.2048 46.6389 38.8687 45.0305 39.5897C44.7531 39.7006 44.7531 40.0889 45.0305 40.1998C46.8607 40.9763 48.1918 42.9175 48.1918 45.2469C48.1918 48.5747 46.0288 51.1814 41.8691 51.1814H30.4992C30.2774 51.1814 30.0555 51.015 30.0555 50.7377V36.983L0.272015 58.7798C-0.22715 59.2235 -0.00530091 60 0.660252 60H80.9703C81.3586 60 81.6359 59.7227 81.6359 59.3344V48.2974C79.4728 50.294 76.6442 51.5697 73.2055 51.5697C66.7719 51.5697 61.5584 47.1326 61.5584 40.3107C61.6138 33.4333 66.8828 29.0518 73.261 29.0518ZM57.3432 50.7932C57.3432 51.015 57.1768 51.1814 56.955 51.1814H53.128C52.9062 51.1814 52.7398 51.015 52.7398 50.7932V29.7728C52.7398 29.5509 52.9062 29.3846 53.128 29.3846H56.955C57.1768 29.3846 57.3432 29.5509 57.3432 29.7728V50.7932Z" fill="#34313F"/>
<path d="M35.1585 38.0367H40.5384C42.0914 38.0367 43.0897 37.1493 43.0897 35.7627C43.0897 34.4316 42.0914 33.4888 40.5384 33.4888H34.9367C34.8258 33.4888 34.7148 33.5997 34.7148 33.7106V37.6485C34.7148 37.8703 34.9367 38.0367 35.1585 38.0367Z" fill="#34313F"/>
<path d="M35.1585 47.1326H40.7603C42.4796 47.1326 43.5334 46.1898 43.5334 44.6368C43.5334 43.2502 42.5351 42.141 40.7603 42.141H35.1585C34.9367 42.141 34.7148 42.3074 34.7148 42.5847V46.6889C34.7148 46.9108 34.9367 47.1326 35.1585 47.1326Z" fill="#34313F"/>
<path d="M78.1974 35.6518C77.1436 34.2653 75.3688 33.156 73.2612 33.156C69.2679 33.156 66.3838 36.2065 66.3838 40.3107C66.3838 44.415 69.2679 47.4654 73.2612 47.4654C75.0914 47.4654 76.8108 46.6889 77.7537 45.9124C77.8091 45.857 77.8646 45.7461 77.8646 45.6351V43.5275C77.8646 43.3612 77.6982 43.1948 77.5318 43.1948H72.5956C72.3183 43.1948 72.1519 42.9729 72.1519 42.7511V39.6452C72.1519 39.3678 72.3738 39.2015 72.5956 39.2015H81.747V34.2653L78.8075 35.8737C78.5856 35.9291 78.3083 35.8182 78.1974 35.6518Z" fill="#34313F"/>
<path d="M85.1299 40.3107C85.1299 33.5997 89.9551 29.0518 96.167 29.0518C100.216 29.0518 102.823 31.1039 104.375 33.5997C104.486 33.7661 104.431 34.0434 104.209 34.0989L101.713 35.43C101.547 35.5409 101.325 35.4854 101.27 35.3191C100.216 33.6552 98.2746 32.435 96.167 32.435C92.0073 32.435 88.9014 35.7073 88.9014 40.3107C88.9014 44.8586 92.0073 48.1864 96.167 48.1864C98.2746 48.1864 100.216 46.9662 101.27 45.3023C101.38 45.136 101.547 45.0805 101.713 45.1914L104.209 46.4671C104.431 46.578 104.486 46.7998 104.375 47.0217C102.767 49.5175 100.16 51.6251 96.167 51.6251C89.9551 51.5696 85.1299 46.9662 85.1299 40.3107Z" fill="#34313F"/>
<path d="M106.539 40.3108C106.539 34.8754 109.645 30.6603 114.304 29.4401C122.235 27.3325 129.501 34.7645 127.781 43.0284C126.728 48.131 122.679 51.6252 117.299 51.6252C110.976 51.5697 106.539 46.7999 106.539 40.3108ZM124.232 40.3108C124.232 35.8183 121.459 32.4351 117.243 32.4351C112.973 32.4351 110.255 35.8183 110.255 40.3108C110.255 44.8033 112.973 48.1865 117.243 48.1865C121.514 48.1865 124.232 44.7478 124.232 40.3108Z" fill="#34313F"/>
<path d="M150.632 50.9041V34.3207L144.032 51.015C144.032 51.0705 143.921 51.126 143.865 51.126H142.479C142.423 51.126 142.312 51.0705 142.312 51.015L135.657 34.3207V50.9041C135.657 51.0705 135.546 51.1814 135.379 51.1814H132.052C131.885 51.1814 131.774 51.0705 131.774 50.9041V29.6064C131.774 29.44 131.885 29.3291 132.052 29.3291H136.822C137.043 29.3291 137.21 29.44 137.321 29.6619L143.144 44.6368L148.912 29.6619C148.968 29.44 149.19 29.3291 149.412 29.3291H154.181C154.348 29.3291 154.459 29.44 154.459 29.6064V50.9041C154.459 51.0705 154.348 51.1814 154.181 51.1814H150.854C150.798 51.1814 150.632 51.0705 150.632 50.9041Z" fill="#34313F"/>
<path d="M188.347 50.7931V29.7728C188.347 29.5509 188.513 29.3845 188.735 29.3845H202.878C203.1 29.3845 203.266 29.5509 203.266 29.7728V32.324C203.266 32.5459 203.1 32.7123 202.878 32.7123H192.562C192.34 32.7123 192.174 32.8787 192.174 33.1005V37.9258C192.174 38.1476 192.34 38.314 192.562 38.314H202.656C202.878 38.314 203.044 38.4804 203.044 38.7023V41.2535C203.044 41.4754 202.878 41.6418 202.656 41.6418H192.562C192.34 41.6418 192.174 41.8082 192.174 42.03V47.299C192.174 47.5208 192.34 47.6872 192.562 47.6872H202.878C203.1 47.6872 203.266 47.8536 203.266 48.0755V50.6268C203.266 50.8486 203.1 51.015 202.878 51.015H188.735C188.513 51.1814 188.347 51.015 188.347 50.7931Z" fill="#34313F"/>
<path d="M221.014 50.9595L216.411 43.1947C216.355 43.0838 216.189 43.0284 216.078 43.0284H212.861C212.639 43.0284 212.473 43.1947 212.473 43.4166V50.7931C212.473 51.015 212.306 51.1814 212.084 51.1814H209.089C208.868 51.1814 208.701 51.015 208.701 50.7931V29.7728C208.701 29.5509 208.868 29.3845 209.089 29.3845H218.296C222.622 29.3845 225.451 32.1577 225.451 36.2064C225.451 39.8115 223.232 41.8636 220.792 42.4737C220.515 42.5292 220.404 42.8065 220.515 43.0838C221.402 44.5259 224.175 48.9629 225.229 50.5713C225.395 50.8486 225.229 51.1814 224.896 51.1814H221.402C221.236 51.1814 221.125 51.1259 221.014 50.9595ZM221.513 36.151C221.513 34.0434 219.96 32.7123 217.797 32.7123H212.916C212.694 32.7123 212.528 32.8787 212.528 33.1005V39.2569C212.528 39.4787 212.694 39.6451 212.916 39.6451H217.797C219.96 39.6451 221.513 38.314 221.513 36.151Z" fill="#34313F"/>
<path d="M251.297 50.7931V29.7728C251.297 29.5509 251.463 29.3845 251.685 29.3845H265.884C266.105 29.3845 266.272 29.5509 266.272 29.7728V32.3795C266.272 32.6014 266.105 32.7677 265.884 32.7677H255.512C255.29 32.7677 255.124 32.9341 255.124 33.156V38.0367C255.124 38.2586 255.29 38.4249 255.512 38.4249H265.606C265.828 38.4249 265.995 38.5913 265.995 38.8132V41.4199C265.995 41.6418 265.828 41.8082 265.606 41.8082H255.512C255.29 41.8082 255.124 41.9746 255.124 42.1964V47.5208C255.124 47.7427 255.29 47.9091 255.512 47.9091H265.884C266.105 47.9091 266.272 48.0755 266.272 48.2973V50.9041C266.272 51.1259 266.105 51.2923 265.884 51.2923H251.685C251.463 51.1814 251.297 51.015 251.297 50.7931Z" fill="#34313F"/>
<path d="M228.224 40.1997C228.224 33.4887 233.049 28.9408 239.261 28.9408C243.31 28.9408 245.916 30.9929 247.469 33.4887C247.58 33.6551 247.525 33.9324 247.303 33.9879L244.807 35.319C244.641 35.4299 244.419 35.3745 244.363 35.2081C243.31 33.5442 241.368 32.324 239.261 32.324C235.101 32.324 231.995 35.5963 231.995 40.1997C231.995 44.7477 235.101 48.0754 239.261 48.0754C241.368 48.0754 243.31 46.8553 244.363 45.1914C244.474 45.025 244.641 44.9695 244.807 45.0805L247.303 46.3561C247.525 46.467 247.58 46.6889 247.469 46.9107C245.861 49.4066 243.254 51.5141 239.261 51.5141C233.049 51.4587 228.224 46.9107 228.224 40.1997Z" fill="#34313F"/>
<path d="M178.918 50.9041V34.3207L172.318 51.015C172.318 51.0705 172.207 51.126 172.151 51.126H170.765C170.709 51.126 170.598 51.0705 170.598 51.015L163.943 34.3207V50.9041C163.943 51.0705 163.832 51.1814 163.666 51.1814H160.338C160.171 51.1814 160.061 51.0705 160.061 50.9041V29.6064C160.061 29.44 160.171 29.3291 160.338 29.3291H165.108C165.33 29.3291 165.496 29.44 165.607 29.6619L171.43 44.6368L177.199 29.6619C177.254 29.44 177.476 29.3291 177.698 29.3291H182.467C182.634 29.3291 182.745 29.44 182.745 29.6064V50.9041C182.745 51.0705 182.634 51.1814 182.467 51.1814H179.14C179.029 51.1814 178.918 51.0705 178.918 50.9041Z" fill="#34313F"/>
</svg>
