<svg width="25" height="25" viewBox="0 0 25 25" fill="none" xmlns="http://www.w3.org/2000/svg">
<path d="M10.2709 18.75C10.128 18.7496 9.98682 18.7197 9.85601 18.6624C9.72519 18.6051 9.60757 18.5214 9.51044 18.4167L4.44795 13.0313C4.2587 12.8296 4.15733 12.561 4.16612 12.2846C4.17491 12.0082 4.29315 11.7466 4.49482 11.5573C4.6965 11.3681 4.96509 11.2667 5.24151 11.2755C5.51793 11.2843 5.77954 11.4025 5.96878 11.6042L10.2604 16.1771L19.0209 6.59378C19.1098 6.48307 19.2204 6.39171 19.3459 6.3253C19.4714 6.2589 19.6091 6.21884 19.7506 6.20761C19.8922 6.19638 20.0345 6.2142 20.1689 6.25998C20.3033 6.30576 20.4269 6.37853 20.5322 6.47383C20.6374 6.56912 20.7221 6.68493 20.781 6.81414C20.8398 6.94334 20.8717 7.08322 20.8745 7.22517C20.8774 7.36713 20.8511 7.50817 20.7975 7.63962C20.7438 7.77108 20.6639 7.89018 20.5625 7.98961L11.0417 18.4063C10.9455 18.5129 10.8283 18.5985 10.6974 18.6576C10.5666 18.7168 10.4249 18.7482 10.2813 18.75H10.2709Z" fill="#FFF507"/>
</svg>
