<svg width="126" height="74" viewBox="0 0 126 74" fill="none" xmlns="http://www.w3.org/2000/svg">
<g clip-path="url(#clip0_531_95)">
<rect x="126" width="5" height="5" rx="2.5" transform="rotate(90 126 0)" fill="#323232"/>
<rect x="45" width="5" height="5" rx="2.5" transform="rotate(90 45 0)" fill="#323232"/>
<rect x="5" width="5" height="5" rx="2.5" transform="rotate(90 5 0)" fill="#323232"/>
<rect x="85" width="5" height="5" rx="2.5" transform="rotate(90 85 0)" fill="#323232"/>
<rect x="126" y="33" width="5" height="5" rx="2.5" transform="rotate(90 126 33)" fill="#323232"/>
<rect x="45" y="33" width="5" height="5" rx="2.5" transform="rotate(90 45 33)" fill="#323232"/>
<rect x="5" y="33" width="5" height="5" rx="2.5" transform="rotate(90 5 33)" fill="#323232"/>
<rect x="85" y="33" width="5" height="5" rx="2.5" transform="rotate(90 85 33)" fill="#323232"/>
<rect x="126" y="66" width="5" height="5" rx="2.5" transform="rotate(90 126 66)" fill="#323232"/>
<rect x="45" y="66" width="5" height="5" rx="2.5" transform="rotate(90 45 66)" fill="#323232"/>
<rect x="5" y="66" width="5" height="5" rx="2.5" transform="rotate(90 5 66)" fill="#323232"/>
<rect x="85" y="66" width="5" height="5" rx="2.5" transform="rotate(90 85 66)" fill="#323232"/>
</g>
<defs>
<clipPath id="clip0_531_95">
<rect width="74" height="126" fill="white" transform="translate(126) rotate(90)"/>
</clipPath>
</defs>
</svg>
