<svg xmlns="http://www.w3.org/2000/svg" version="1.1" xmlns:xlink="http://www.w3.org/1999/xlink" xmlns:svgjs="http://svgjs.com/svgjs" width="1440" height="912" preserveAspectRatio="none" viewBox="0 0 1440 912"><g mask="url(&quot;#SvgjsMask1242&quot;)" fill="none"><rect width="1440" height="912" x="0" y="0" fill="rgba(26, 26, 26, 1)"></rect><path d="M1440 0L881.74 0L1440 73.81z" fill="rgba(255, 255, 255, .1)"></path><path d="M881.74 0L1440 73.81L1440 275.24L823.66 0z" fill="rgba(255, 255, 255, .075)"></path><path d="M823.66 0L1440 275.24L1440 612.61L782.79 0z" fill="rgba(255, 255, 255, .05)"></path><path d="M782.79 0L1440 612.61L1440 777.1600000000001L695.15 0z" fill="rgba(255, 255, 255, .025)"></path><path d="M0 912L187.46 912L0 739.69z" fill="rgba(0, 0, 0, .1)"></path><path d="M0 739.69L187.46 912L508 912L0 561.23z" fill="rgba(0, 0, 0, .075)"></path><path d="M0 561.23L508 912L952.96 912L0 229.41000000000003z" fill="rgba(0, 0, 0, .05)"></path><path d="M0 229.41000000000008L952.96 912L1286.45 912L0 78.4600000000001z" fill="rgba(0, 0, 0, .025)"></path></g><defs><mask id="SvgjsMask1242"><rect width="1440" height="912" fill="#ffffff"></rect></mask></defs></svg>