<svg width="211" height="48" viewBox="0 0 211 48" fill="none" xmlns="http://www.w3.org/2000/svg">
<g clip-path="url(#clip0_21_3)">
<path d="M2.52841 39V9.90909H14.0057C16.2121 9.90909 18.0919 10.3305 19.6449 11.1733C21.1979 12.0066 22.3816 13.1667 23.196 14.6534C24.0199 16.1307 24.4318 17.8352 24.4318 19.767C24.4318 21.6989 24.0152 23.4034 23.1818 24.8807C22.3485 26.358 21.1411 27.5085 19.5597 28.3324C17.9877 29.1562 16.0843 29.5682 13.8494 29.5682H6.53409V24.6392H12.8551C14.0388 24.6392 15.0142 24.4356 15.7812 24.0284C16.5578 23.6117 17.1354 23.0388 17.5142 22.3097C17.9025 21.571 18.0966 20.7235 18.0966 19.767C18.0966 18.8011 17.9025 17.9583 17.5142 17.2386C17.1354 16.5095 16.5578 15.946 15.7812 15.5483C15.0047 15.1411 14.0199 14.9375 12.8267 14.9375H8.67898V39H2.52841ZM28.4268 39V9.90909H34.5774V33.929H47.049V39H28.4268ZM56.8786 39H50.2876L60.3303 9.90909H68.2564L78.2848 39H71.6939L64.407 16.5568H64.1797L56.8786 39ZM56.4666 27.5653H72.0348V32.3665H56.4666V27.5653ZM106.119 9.90909V39H100.806L88.1499 20.6903H87.9368V39H81.7862V9.90909H87.1839L99.7408 28.2045H99.9964V9.90909H106.119Z" fill="#1A1A1A"/>
<path d="M117.749 39L109.425 9.90909H116.143L120.959 30.1222H121.2L126.513 9.90909H132.266L137.564 30.1648H137.82L142.635 9.90909H149.354L141.03 39H135.036L129.496 19.9801H129.268L123.743 39H117.749ZM152.646 39V9.90909H172.248V14.9801H158.796V21.9119H171.239V26.983H158.796V33.929H172.305V39H152.646ZM177.138 39V9.90909H188.786C190.926 9.90909 192.711 10.2263 194.141 10.8608C195.571 11.4953 196.645 12.3759 197.365 13.5028C198.085 14.6203 198.445 15.9081 198.445 17.3665C198.445 18.5028 198.217 19.5019 197.763 20.3636C197.308 21.2159 196.683 21.9167 195.888 22.4659C195.102 23.0057 194.202 23.3892 193.189 23.6165V23.9006C194.297 23.9479 195.334 24.2604 196.3 24.8381C197.275 25.4157 198.066 26.2254 198.672 27.267C199.278 28.2992 199.581 29.5303 199.581 30.9602C199.581 32.5038 199.197 33.8816 198.43 35.0938C197.673 36.2964 196.551 37.2481 195.064 37.9489C193.577 38.6496 191.745 39 189.567 39H177.138ZM183.288 33.9716H188.303C190.017 33.9716 191.267 33.6449 192.053 32.9915C192.839 32.3286 193.232 31.4479 193.232 30.3494C193.232 29.5445 193.037 28.8343 192.649 28.2188C192.261 27.6032 191.707 27.1203 190.987 26.7699C190.277 26.4195 189.429 26.2443 188.445 26.2443H183.288V33.9716ZM183.288 22.0824H187.848C188.691 22.0824 189.439 21.9356 190.092 21.642C190.755 21.339 191.276 20.9129 191.655 20.3636C192.043 19.8144 192.237 19.1562 192.237 18.3892C192.237 17.3381 191.863 16.4905 191.115 15.8466C190.376 15.2027 189.325 14.8807 187.962 14.8807H183.288V22.0824ZM207.006 39.3693C206.069 39.3693 205.264 39.0379 204.592 38.375C203.929 37.7027 203.597 36.8977 203.597 35.9602C203.597 35.0322 203.929 34.2367 204.592 33.5739C205.264 32.911 206.069 32.5795 207.006 32.5795C207.915 32.5795 208.711 32.911 209.393 33.5739C210.075 34.2367 210.415 35.0322 210.415 35.9602C210.415 36.5852 210.254 37.1581 209.933 37.679C209.62 38.1903 209.208 38.6023 208.697 38.9148C208.185 39.2178 207.622 39.3693 207.006 39.3693Z" fill="#F84525"/>
</g>
<defs>
<clipPath id="clip0_21_3">
<rect width="211" height="48" fill="white"/>
</clipPath>
</defs>
</svg>
