<svg width="85" height="77" viewBox="0 0 85 77" fill="none" xmlns="http://www.w3.org/2000/svg">
<rect width="5" height="5" rx="2.5" fill="white"/>
<rect x="20" width="5" height="5" rx="2.5" fill="white"/>
<rect x="40" width="5" height="5" rx="2.5" fill="white"/>
<rect x="60" width="5" height="5" rx="2.5" fill="white"/>
<rect x="80" width="5" height="5" rx="2.5" fill="white"/>
<rect y="24" width="5" height="5" rx="2.5" fill="white"/>
<rect x="20" y="24" width="5" height="5" rx="2.5" fill="white"/>
<rect x="40" y="24" width="5" height="5" rx="2.5" fill="white"/>
<rect x="60" y="24" width="5" height="5" rx="2.5" fill="white"/>
<rect x="80" y="24" width="5" height="5" rx="2.5" fill="white"/>
<rect y="48" width="5" height="5" rx="2.5" fill="white"/>
<rect x="20" y="48" width="5" height="5" rx="2.5" fill="white"/>
<rect x="40" y="48" width="5" height="5" rx="2.5" fill="white"/>
<rect x="60" y="48" width="5" height="5" rx="2.5" fill="white"/>
<rect x="80" y="48" width="5" height="5" rx="2.5" fill="white"/>
<rect y="72" width="5" height="5" rx="2.5" fill="white"/>
<rect x="20" y="72" width="5" height="5" rx="2.5" fill="white"/>
<rect x="40" y="72" width="5" height="5" rx="2.5" fill="white"/>
<rect x="60" y="72" width="5" height="5" rx="2.5" fill="white"/>
<rect x="80" y="72" width="5" height="5" rx="2.5" fill="white"/>
</svg>
