<svg width="320" height="126" viewBox="0 0 320 126" fill="none" xmlns="http://www.w3.org/2000/svg">
<rect width="7.5" height="7.5" rx="3.75" fill="white"/>
<rect y="111" width="7.5" height="7.5" rx="3.75" fill="white"/>
<rect x="60" width="7.5" height="7.5" rx="3.75" fill="white"/>
<rect x="60" y="111" width="7.5" height="7.5" rx="3.75" fill="white"/>
<rect x="120" width="7.5" height="7.5" rx="3.75" fill="white"/>
<rect x="120" y="111" width="7.5" height="7.5" rx="3.75" fill="white"/>
<rect x="180" width="7.5" height="7.5" rx="3.75" fill="white"/>
<rect x="180" y="111" width="7.5" height="7.5" rx="3.75" fill="white"/>
<rect x="240" width="7.5" height="7.5" rx="3.75" fill="white"/>
<rect x="240" y="111" width="7.5" height="7.5" rx="3.75" fill="white"/>
<rect x="300" width="7.5" height="7.5" rx="3.75" fill="white"/>
<rect x="300" y="111" width="7.5" height="7.5" rx="3.75" fill="white"/>
<rect y="74" width="7.5" height="7.5" rx="3.75" fill="white"/>
<rect x="60" y="74" width="7.5" height="7.5" rx="3.75" fill="white"/>
<rect x="120" y="74" width="7.5" height="7.5" rx="3.75" fill="white"/>
<rect x="180" y="74" width="7.5" height="7.5" rx="3.75" fill="white"/>
<rect x="240" y="74" width="7.5" height="7.5" rx="3.75" fill="white"/>
<rect x="300" y="74" width="7.5" height="7.5" rx="3.75" fill="white"/>
<rect y="37" width="7.5" height="7.5" rx="3.75" fill="white"/>
<rect x="60" y="37" width="7.5" height="7.5" rx="3.75" fill="white"/>
<rect x="120" y="37" width="7.5" height="7.5" rx="3.75" fill="white"/>
<rect x="180" y="37" width="7.5" height="7.5" rx="3.75" fill="white"/>
<rect x="240" y="37" width="7.5" height="7.5" rx="3.75" fill="white"/>
<rect x="300" y="37" width="7.5" height="7.5" rx="3.75" fill="white"/>
</svg>
