<svg width="226" height="35" viewBox="0 0 226 35" fill="none" xmlns="http://www.w3.org/2000/svg">
<g clip-path="url(#clip0_917_117)">
<path d="M47.8824 11.0581C45.6148 11.0581 44.1346 11.8849 44.1346 13.3317C44.1346 14.7786 45.6778 15.4331 47.9454 15.7087C51.1893 16.0187 55.4096 16.6043 55.4096 21.4272C55.4096 24.8376 52.4491 27.2835 47.9139 27.2835C45.0479 27.2835 42.3079 26.5945 39.8828 23.8731L41.804 21.1171C43.4102 22.874 45.6148 23.8731 47.8509 23.8731C49.8036 23.8731 51.7247 23.2185 51.7247 21.4961C51.7247 19.7736 50.213 19.188 47.6305 18.9469C44.355 18.6368 40.4497 17.5689 40.4497 13.4695C40.4497 9.37009 44.481 7.8199 47.7564 7.8199C50.213 7.751 52.6066 8.61222 54.5277 10.2658L52.6066 12.7116C51.3153 11.5748 49.6146 10.9892 47.8824 11.0581ZM67.5664 23.6664C69.4246 23.6664 71.5662 22.9774 72.6686 21.6683L75.0621 24.1142C73.2355 26.25 70.212 27.2835 67.5035 27.2835C61.74 27.2835 58.0236 23.4941 58.0236 17.5689C58.0236 11.9193 61.866 7.85435 67.4405 7.85435C72.6056 7.85435 76.1644 11.0581 76.1644 17.4311C76.1644 17.9478 76.1329 18.5335 76.1015 19.0847H61.866C62.1494 21.9439 64.3225 23.6664 67.5664 23.6664ZM67.4405 11.2648C64.7634 11.2648 62.4643 12.815 61.8974 15.812H72.5741C72.3221 12.8494 70.4954 11.2648 67.4405 11.2648ZM93.1715 16.4321C93.1715 13.2284 91.4708 11.4026 88.4158 11.4026C87.0615 11.4026 85.8018 11.9882 84.8569 13.0561C83.9121 14.124 83.4397 15.5709 83.4712 17.0522V26.8701H79.7548V8.30218H83.1247L83.3452 10.8858C84.8254 8.9567 86.967 7.8199 89.2661 7.85435C93.5179 7.85435 96.8248 10.6447 96.8248 16.4321V26.8701H93.14L93.1715 16.4321ZM119.28 26.8357H115.816L115.596 23.9075C114.21 26.1122 111.911 27.3868 109.517 27.2835C104.415 27.2835 100.541 23.7008 100.541 17.5689C100.541 11.2648 104.352 7.85435 109.454 7.85435C111.596 7.85435 114.493 8.95671 115.627 11.1614V0.620094H119.343L119.28 26.8357ZM104.195 17.5345C104.195 21.2894 106.62 23.6664 109.738 23.6664C112.761 23.6664 115.249 20.9449 115.249 17.5689C115.249 14.1929 112.793 11.4715 109.738 11.4715C106.62 11.4715 104.195 13.7795 104.195 17.5345ZM126.115 0.0689103C126.713 1.26052e-05 127.311 0.241155 127.721 0.68899C128.162 1.13682 128.414 1.79135 128.382 2.44588C128.288 3.78938 127.311 4.7884 126.115 4.7884C124.918 4.7884 123.91 3.75493 123.847 2.44588C123.847 1.79135 124.068 1.17127 124.508 0.68899C124.949 0.241155 125.516 0.0344614 126.115 0.0689103ZM127.941 26.8357H124.225V8.26773H127.941V26.8357ZM146.271 16.4321C146.271 13.2284 144.57 11.4026 141.515 11.4026C140.161 11.4026 138.901 11.9882 137.957 13.0561C137.012 14.124 136.539 15.5709 136.571 17.0522V26.8701H132.886V8.30218H136.224L136.445 10.8858C137.925 8.9567 140.098 7.8199 142.366 7.85435C146.618 7.85435 149.924 10.6447 149.924 16.4321V26.8701H146.208C146.24 26.8356 146.271 16.4321 146.271 16.4321ZM158.365 11.2992C159.499 9.0945 162.396 7.8199 164.538 7.8199C169.609 7.8199 173.451 11.2303 173.451 17.5345C173.451 23.7008 169.325 27.249 164.506 27.249C162.302 27.249 159.751 26.25 158.365 23.8731L158.145 26.8012H154.68V0.551192H158.365V11.2992ZM158.585 17.5345C158.554 19.188 159.152 20.7727 160.223 21.9439C161.294 23.1152 162.743 23.7353 164.223 23.6664C167.435 23.6664 169.766 21.2894 169.766 17.5345C169.766 13.7795 167.404 11.437 164.223 11.437C162.743 11.3681 161.294 11.9882 160.223 13.1595C159.152 14.3307 158.554 15.9154 158.585 17.5345ZM181.167 26.8357H177.482V0.585643H181.198L181.167 26.8357ZM189.702 18.3612C189.702 21.5305 191.371 23.7008 194.489 23.7008C195.812 23.7008 197.103 23.1152 198.017 22.0817C198.93 21.0138 199.434 19.5669 199.371 18.1201V8.26773H203.056V26.8357H199.749L199.528 24.2864C198.017 26.2845 195.78 27.3868 193.481 27.2835C189.167 27.2835 186.08 24.0108 186.08 18.4301V8.30218H189.765L189.702 18.3612ZM216.504 23.6664C218.362 23.6664 220.504 22.9774 221.606 21.6683L223.999 24.1142C222.173 26.25 219.149 27.2835 216.441 27.2835C210.677 27.2835 206.961 23.4941 206.961 17.5689C206.961 11.9193 210.803 7.85435 216.378 7.85435C221.543 7.85435 225.102 11.0581 225.102 17.4311C225.102 17.9478 225.07 18.5335 225.039 19.0847H210.772C211.087 21.9439 213.26 23.6664 216.504 23.6664ZM216.378 11.2648C213.701 11.2648 211.37 12.815 210.835 15.812H221.48C221.259 12.8494 219.401 11.2648 216.378 11.2648Z" fill="white"/>
<path fill-rule="evenodd" clip-rule="evenodd" d="M27.3783 25.1132C26.5594 26.6634 25.2052 27.8346 23.6304 28.3169C23.8509 27.4557 23.9769 26.5945 23.9769 25.6988C23.9769 21.2894 21.2054 17.6378 17.489 16.6043C18.2449 15.7776 19.2212 15.1919 20.2605 14.8819C21.8668 14.3996 23.599 14.6407 25.0477 15.5709C28.1027 17.5344 29.142 21.8061 27.3783 25.1132ZM15.4734 32.6919C13.8357 32.6919 12.2609 31.9685 11.0956 30.7283C11.883 30.5217 12.6074 30.1772 13.3003 29.7638C16.7647 27.5591 18.2764 23.0807 17.2056 19.0502C19.8511 19.877 21.8038 22.564 21.8038 25.7333C21.8038 29.5571 18.9693 32.6919 15.4734 32.6919ZM3.56847 25.1132C2.74962 23.5285 2.52915 21.6683 2.90709 19.9459C3.47399 20.566 4.10388 21.1171 4.79676 21.565C6.08803 22.3917 7.53677 22.8051 9.04851 22.8051C11.3791 22.8051 13.5837 21.7717 15.1899 19.9114C15.8513 22.8396 14.7175 26.0433 12.2294 27.628C11.2846 28.248 10.1823 28.5581 9.08 28.5581C6.8124 28.5925 4.70227 27.2835 3.56847 25.1132ZM3.56847 9.99016C4.38733 8.43996 5.74159 7.2687 7.31631 6.78642C7.09585 7.64764 6.96987 8.50886 6.96987 9.40453C6.96987 13.7795 9.74139 17.4656 13.4577 18.499C11.4736 20.6004 8.38713 21.1171 5.89906 19.5325C4.45032 18.6024 3.3795 17.0866 2.93858 15.2953C2.49766 13.5039 2.71812 11.6093 3.56847 9.99016ZM15.4734 2.44586C17.1111 2.44586 18.6858 3.16929 19.8511 4.40945C19.0637 4.61614 18.3394 4.96063 17.6465 5.37401C15.6938 6.61417 14.2766 8.64665 13.6782 11.0581C13.2688 12.7116 13.3003 14.4341 13.7412 16.0876C11.0956 15.2608 9.14299 12.5738 9.14299 9.40453C9.14299 5.54626 11.9775 2.44586 15.4734 2.44586ZM27.3783 9.99016C28.1971 11.5748 28.4176 13.435 28.0397 15.1575C27.4728 14.5374 26.8429 13.9862 26.15 13.5384C24.1973 12.2982 21.8983 11.9537 19.6936 12.6083C18.1819 13.0561 16.8276 13.9518 15.7568 15.1919C15.5049 14.0551 15.5049 12.8494 15.7883 11.7126C16.2292 9.92126 17.2686 8.40551 18.7488 7.47539C20.1975 6.54528 21.9297 6.30413 23.536 6.78642C25.1737 7.23425 26.5279 8.40551 27.3783 9.99016ZM29.268 8.78445C28.1342 6.61417 26.3075 5.06398 24.1029 4.40945C23.599 4.27166 23.0635 4.16831 22.5281 4.09941C20.9534 1.55019 18.3079 0 15.5049 0C12.5759 0 9.99334 1.61909 8.48161 4.09941C5.6786 4.34055 3.12755 6.06299 1.7103 8.75C0.576498 10.9203 0.261553 13.435 0.859948 15.8465C0.985926 16.4321 1.17489 16.9833 1.42685 17.5C0.198564 20.2904 0.293048 23.563 1.7103 26.25C3.15904 29.0404 5.74159 30.6595 8.45011 30.9006C10.0248 33.4498 12.6704 35 15.5049 35C18.4339 35 21.0164 33.3809 22.5281 30.9006C25.3311 30.6595 27.8822 28.937 29.2995 26.25C30.7482 23.4596 30.7797 20.187 29.5829 17.5C30.7797 14.7785 30.6852 11.5059 29.268 8.78445Z" fill="white"/>
</g>
<defs>
<clipPath id="clip0_917_117">
<rect width="224.875" height="35" fill="white" transform="translate(0.5625)"/>
</clipPath>
</defs>
</svg>
