<svg width="45" height="40" viewBox="0 0 45 40" fill="none" xmlns="http://www.w3.org/2000/svg">
<path fill-rule="evenodd" clip-rule="evenodd" d="M19.568 32.5221C14.8592 32.6699 10.1813 31.2862 6.98556 27.8407C3.63848 24.2321 1.7903 19.268 2.81715 14.4625C3.8229 9.75577 7.75898 6.51297 12.026 4.25245C16.328 1.97338 21.3032 0.38536 25.7808 2.29713C30.2954 4.22471 32.7853 8.86857 33.9603 13.6176C35.1057 18.2466 34.8006 23.2586 31.9075 27.0587C29.0465 30.8167 24.3012 32.3736 19.568 32.5221Z" fill="#FFF507"/>
<path d="M24.854 11.2461C24.2183 11.2461 23.7603 11.7041 23.7603 12.3364C23.7603 12.9688 24.2217 13.4268 24.854 13.4268C25.4897 13.4268 25.9478 12.9688 25.9478 12.3364C25.9512 11.7075 25.4897 11.2461 24.854 11.2461V11.2461ZM38.3174 14.541C37.8457 14.0693 37.1997 13.8062 36.499 13.8062C36.3657 13.8062 36.2461 13.8198 36.1333 13.8403V13.8062H36.0103C35.8223 12.7603 35.3745 11.7383 34.708 10.8188C34.0688 9.94043 33.2383 9.18164 32.2881 8.60059L33.146 7.37695V7.26416C33.146 7.23682 33.1597 7.18555 33.1699 7.13428C33.1904 7.05225 33.2178 6.94629 33.2178 6.83008C33.2178 6.19775 32.7563 5.73975 32.124 5.73975C31.7891 5.73975 31.4575 5.93457 31.2388 6.26611L30.2373 7.70508C29.2119 7.37012 28.1045 7.19238 27.0312 7.19238C25.9614 7.19238 24.854 7.37012 23.8252 7.70508L22.8271 6.2627C22.6016 5.93457 22.2769 5.73633 21.9385 5.73633C21.3027 5.73633 20.8447 6.19434 20.8447 6.82666C20.8447 7.03857 20.9302 7.26416 21.0737 7.42139L21.8462 8.52539C20.8652 9.10645 20.0176 9.87207 19.3784 10.7505C18.7153 11.6699 18.2847 12.6919 18.124 13.7378H17.936V13.772C17.8267 13.7515 17.707 13.7378 17.5703 13.7378C16.8765 13.7378 16.2305 13.9941 15.7554 14.4658C15.2837 14.9375 15.0205 15.5801 15.0205 16.2773V24.3096C15.0205 25.0034 15.2769 25.646 15.752 26.1177C16.2236 26.5894 16.873 26.8525 17.5703 26.8525C17.7036 26.8525 17.8232 26.8389 17.936 26.8184V30.0142C17.936 31.0122 18.7529 31.8291 19.7544 31.8291H20.8447V33.8218C20.8447 34.5156 21.1011 35.1582 21.5762 35.6299C22.0479 36.1016 22.6973 36.3647 23.3945 36.3647C24.0884 36.3647 24.7344 36.1084 25.2095 35.6367C25.6812 35.165 25.9443 34.5225 25.9443 33.8252V31.8359H28.125V33.8218C28.125 34.5156 28.3813 35.1582 28.8564 35.6299C29.3281 36.1016 29.9775 36.3647 30.6748 36.3647C31.3721 36.3647 32.0146 36.1084 32.4897 35.6265C32.9614 35.1548 33.2246 34.5122 33.2246 33.8149V31.8257H34.3149C35.3164 31.8257 36.1333 31.0122 36.1333 30.0107V26.8867C36.2427 26.9072 36.3623 26.9209 36.499 26.9209C37.1929 26.9209 37.8389 26.6646 38.314 26.1929C38.7856 25.7212 39.0488 25.0786 39.0488 24.3813V16.3491C39.0454 15.6553 38.7891 15.0161 38.3174 14.541V14.541ZM17.9395 24.3848C17.9395 24.6172 17.8062 24.7471 17.5737 24.7471C17.3413 24.7471 17.208 24.6172 17.208 24.3848V16.3491C17.208 16.1167 17.3413 15.9868 17.5737 15.9868C17.8062 15.9868 17.9395 16.1167 17.9395 16.3491V24.3848ZM22.4204 10.8223C23.7021 9.88916 25.3359 9.37646 27.0347 9.37646C28.7334 9.37646 30.3672 9.89258 31.6489 10.8291C32.7563 11.6392 33.5015 12.6816 33.792 13.8198H20.2773C20.5679 12.6782 21.3198 11.6323 22.4204 10.8223V10.8223ZM23.7637 33.8833C23.7432 34.0747 23.6133 34.1807 23.4048 34.1807C23.1724 34.1807 23.0391 34.0508 23.0391 33.8184V31.8291H23.7637V33.8833ZM30.6782 34.1807C30.4458 34.1807 30.3125 34.0508 30.3125 33.8184V31.8291H31.0371V33.8833C31.0166 34.0747 30.8901 34.1807 30.6782 34.1807ZM33.9526 29.6484H20.1235V15.9902H33.9526V29.6484ZM36.8647 24.3848C36.8647 24.6172 36.7314 24.7471 36.499 24.7471C36.2666 24.7471 36.1333 24.6172 36.1333 24.3848V16.3491C36.1333 16.1167 36.2666 15.9868 36.499 15.9868C36.7314 15.9868 36.8647 16.1167 36.8647 16.3491V24.3848ZM29.2222 11.2461C28.5864 11.2461 28.1284 11.7041 28.1284 12.3364C28.1284 12.9688 28.5898 13.4268 29.2222 13.4268C29.8579 13.4268 30.3193 12.9688 30.3193 12.333C30.3159 11.6973 29.8613 11.2461 29.2222 11.2461V11.2461Z" fill="black"/>
</svg>
