<svg width="45" height="40" viewBox="0 0 45 40" fill="none" xmlns="http://www.w3.org/2000/svg">
<g clip-path="url(#clip0_463_53)">
<path fill-rule="evenodd" clip-rule="evenodd" d="M30.9748 5.5559C34.2313 8.65417 37.0496 12.5482 37.0308 17.006C37.0123 21.4248 34.1022 25.1054 30.8803 28.0779C27.8081 30.9123 24.0117 32.9272 19.7975 32.9054C15.5715 32.8834 11.6999 30.8512 8.56861 27.9621C5.28174 24.9294 2.38585 21.1579 2.25757 16.722C2.12729 12.2168 4.66355 8.17857 7.90763 5.10525C11.0588 2.12001 15.1553 0.271625 19.5318 0.357125C23.8608 0.441698 27.813 2.54773 30.9748 5.5559Z" fill="#FFF507"/>
<path d="M38.2476 11.2051L36.7983 9.75586C36.7469 9.70497 36.6775 9.67643 36.6052 9.67643C36.5329 9.67643 36.4635 9.70497 36.4121 9.75586L14.7524 31.4087C14.7016 31.4601 14.673 31.5295 14.673 31.6018C14.673 31.6741 14.7016 31.7435 14.7524 31.7949L16.2017 33.2441C16.3076 33.3501 16.4819 33.3501 16.5879 33.2441L38.2441 11.5879C38.3535 11.4854 38.3535 11.311 38.2476 11.2051ZM19.3906 19.3125C22.1045 19.3125 24.3125 17.1045 24.3125 14.3906C24.3125 11.6768 22.1045 9.46875 19.3906 9.46875C16.6768 9.46875 14.4688 11.6768 14.4688 14.3906C14.4688 17.1045 16.6768 19.3125 19.3906 19.3125ZM19.3906 11.9297C20.7476 11.9297 21.8516 13.0337 21.8516 14.3906C21.8516 15.7476 20.7476 16.8516 19.3906 16.8516C18.0337 16.8516 16.9297 15.7476 16.9297 14.3906C16.9297 13.0337 18.0337 11.9297 19.3906 11.9297ZM33.6094 23.6875C30.8955 23.6875 28.6875 25.8955 28.6875 28.6094C28.6875 31.3232 30.8955 33.5312 33.6094 33.5312C36.3232 33.5312 38.5312 31.3232 38.5312 28.6094C38.5312 25.8955 36.3232 23.6875 33.6094 23.6875ZM33.6094 31.0703C32.2524 31.0703 31.1484 29.9663 31.1484 28.6094C31.1484 27.2524 32.2524 26.1484 33.6094 26.1484C34.9663 26.1484 36.0703 27.2524 36.0703 28.6094C36.0703 29.9663 34.9663 31.0703 33.6094 31.0703Z" fill="black"/>
</g>
<defs>
<clipPath id="clip0_463_53">
<rect width="45" height="40" fill="white"/>
</clipPath>
</defs>
</svg>
