<svg width="45" height="40" viewBox="0 0 45 40" fill="none" xmlns="http://www.w3.org/2000/svg">
<path fill-rule="evenodd" clip-rule="evenodd" d="M18.3692 1.01039C22.7899 0.898501 27.4593 1.6592 30.5473 4.82453C33.6084 7.96227 34.1444 12.6225 33.9709 17.0027C33.8055 21.1793 32.5662 25.2885 29.6194 28.2529C26.6643 31.2257 22.5573 32.5263 18.3692 32.6975C13.973 32.8773 9.33477 32.2581 6.1597 29.2122C2.93499 26.1186 1.89017 21.4698 2.00897 17.0027C2.12435 12.6636 3.68829 8.45992 6.79226 5.42576C9.86257 2.4245 14.077 1.11902 18.3692 1.01039Z" fill="#FFF507"/>
<path d="M40.742 15.2082C40.49 14.7716 40.1292 14.4078 39.6947 14.1522C39.2602 13.8966 38.7669 13.758 38.2628 13.7499H19.5962L18.7503 10.454C18.6649 10.1359 18.4742 9.85605 18.2094 9.66009C17.9446 9.46413 17.6212 9.3636 17.292 9.37488H14.3753C13.9886 9.37488 13.6176 9.52852 13.3441 9.80201C13.0706 10.0755 12.917 10.4464 12.917 10.8332C12.917 11.22 13.0706 11.5909 13.3441 11.8644C13.6176 12.1379 13.9886 12.2915 14.3753 12.2915H16.1837L20.2087 27.254C20.2941 27.5722 20.4848 27.852 20.7496 28.048C21.0144 28.244 21.3378 28.3445 21.667 28.3332H34.792C35.0613 28.3324 35.3251 28.257 35.5542 28.1154C35.7833 27.9739 35.9687 27.7716 36.0899 27.5311L40.8732 17.9645C41.0806 17.5299 41.1771 17.0508 41.1542 16.5698C41.1313 16.0889 40.9897 15.6211 40.742 15.2082ZM33.8878 25.4165H22.7753L20.3982 16.6665H38.2628L33.8878 25.4165Z" fill="black"/>
<path d="M20.9375 35.625C22.1456 35.625 23.125 34.6456 23.125 33.4375C23.125 32.2294 22.1456 31.25 20.9375 31.25C19.7294 31.25 18.75 32.2294 18.75 33.4375C18.75 34.6456 19.7294 35.625 20.9375 35.625Z" fill="black"/>
<path d="M35.5205 35.625C36.7286 35.625 37.708 34.6456 37.708 33.4375C37.708 32.2294 36.7286 31.25 35.5205 31.25C34.3124 31.25 33.333 32.2294 33.333 33.4375C33.333 34.6456 34.3124 35.625 35.5205 35.625Z" fill="black"/>
</svg>
