<svg width="45" height="40" viewBox="0 0 45 40" fill="none" xmlns="http://www.w3.org/2000/svg">
<path fill-rule="evenodd" clip-rule="evenodd" d="M19.568 32.5219C14.8592 32.6696 10.1813 31.2859 6.98556 27.8405C3.63848 24.2319 1.7903 19.2677 2.81715 14.4623C3.8229 9.75553 7.75898 6.51272 12.026 4.2522C16.328 1.97313 21.3032 0.385115 25.7808 2.29689C30.2954 4.22447 32.7853 8.86832 33.9603 13.6173C35.1057 18.2464 34.8006 23.2584 31.9075 27.0585C29.0465 30.8165 24.3012 32.3734 19.568 32.5219Z" fill="#FFF507"/>
<g clip-path="url(#clip0_463_63)">
<path d="M32.1875 8.84375C32.1875 8.07296 32.4937 7.33375 33.0387 6.78872C33.5837 6.24369 34.323 5.9375 35.0938 5.9375C35.8645 5.9375 36.6038 6.24369 37.1488 6.78872C37.6938 7.33375 38 8.07296 38 8.84375V30.1562C38 30.927 37.6938 31.6663 37.1488 32.2113C36.6038 32.7563 35.8645 33.0625 35.0938 33.0625C34.323 33.0625 33.5837 32.7563 33.0387 32.2113C32.4937 31.6663 32.1875 30.927 32.1875 30.1562V29.7416C27.9986 27.3372 23.4881 26.1708 18.7955 25.7058L19.5802 30.9603C19.6329 31.2402 19.6232 31.5284 19.5519 31.8041C19.4805 32.0799 19.3492 32.3365 19.1673 32.5558C18.9855 32.775 18.7575 32.9514 18.4997 33.0725C18.2418 33.1936 17.9605 33.2563 17.6756 33.2562H16.6139C16.2373 33.2562 15.8688 33.1464 15.5536 32.9403C15.2384 32.7342 14.9901 32.4407 14.8391 32.0957L11.2548 25.3338C11.1243 25.3317 10.9938 25.3297 10.8634 25.328C9.83721 25.3178 8.85636 24.9038 8.13325 24.1756C7.41015 23.4474 7.00301 22.4637 7 21.4375L7 17.5625C7.00346 16.5362 7.40992 15.5523 8.13182 14.8228C8.85372 14.0933 9.83328 13.6765 10.8595 13.6623C12.4638 13.6406 14.0676 13.5921 15.6703 13.517C21.5661 13.2186 27.5821 11.8721 32.1875 9.25644V8.84375ZM34.125 8.84375V30.1562C34.125 30.4132 34.2271 30.6596 34.4087 30.8413C34.5904 31.0229 34.8368 31.125 35.0938 31.125C35.3507 31.125 35.5971 31.0229 35.7788 30.8413C35.9604 30.6596 36.0625 30.4132 36.0625 30.1562V8.84375C36.0625 8.58682 35.9604 8.34042 35.7788 8.15874C35.5971 7.97706 35.3507 7.875 35.0938 7.875C34.8368 7.875 34.5904 7.97706 34.4087 8.15874C34.2271 8.34042 34.125 8.58682 34.125 8.84375ZM32.1875 11.4594C27.646 13.7941 22.0951 15.0282 16.6875 15.3983V23.5997C17.0363 23.6191 17.3831 23.6424 17.7279 23.6695C22.7034 24.0357 27.5956 25.111 32.1875 27.5309V11.4594ZM14.75 23.5009V15.4991C13.4639 15.5461 12.1773 15.5797 10.8905 15.5998C10.3727 15.6059 9.87806 15.8149 9.51283 16.182C9.14761 16.549 8.94102 17.0447 8.9375 17.5625V21.4375C8.9375 22.5031 9.8055 23.3789 10.8866 23.3924C12.1749 23.4074 13.4629 23.4435 14.75 23.5009V23.5009ZM13.4771 25.39L16.5945 31.2742L16.6139 31.3207H17.6756L17.6717 31.2936L16.8134 25.5469C15.702 25.4799 14.5898 25.4269 13.4771 25.3881V25.39Z" fill="black"/>
</g>
<defs>
<clipPath id="clip0_463_63">
<rect width="31" height="31" fill="white" transform="translate(7 4)"/>
</clipPath>
</defs>
</svg>
