<svg width="45" height="40" viewBox="0 0 45 40" fill="none" xmlns="http://www.w3.org/2000/svg">
<g clip-path="url(#clip0_463_32)">
<path fill-rule="evenodd" clip-rule="evenodd" d="M7.02616 7.777C10.2166 4.34382 14.8993 2.81093 19.3703 2.76058C23.6887 2.71194 27.402 4.7261 30.4488 7.51319C33.6553 10.4464 36.7668 13.9746 36.6058 18.527C36.4437 23.1109 33.0937 27.0608 29.6398 30.3907C26.2718 33.6377 22.2802 36.463 17.8088 36.6487C13.3535 36.8339 9.41539 34.5473 6.61472 31.3473C3.98124 28.3383 3.21893 24.245 3.29195 20.062C3.36771 15.7217 3.93046 11.1082 7.02616 7.777Z" fill="#FFF507"/>
<path d="M35.5741 9.27058C35.7741 9.35326 35.9451 9.49342 36.0654 9.67332C36.1857 9.85322 36.25 10.0648 36.25 10.2812V15.75H41.7188C41.9354 15.7496 42.1472 15.8135 42.3274 15.9337C42.5077 16.0538 42.6482 16.2248 42.7311 16.4249C42.814 16.625 42.8357 16.8452 42.7933 17.0576C42.751 17.2701 42.6465 17.4651 42.4931 17.6181L38.1181 21.9931C38.0164 22.0946 37.8956 22.175 37.7627 22.2298C37.6299 22.2846 37.4875 22.3127 37.3438 22.3125H31.2341L29.6153 23.9334C29.7018 24.2577 29.7126 24.5975 29.6469 24.9267C29.5812 25.2558 29.4406 25.5654 29.2362 25.8316C29.0317 26.0978 28.7688 26.3134 28.4678 26.4618C28.1668 26.6102 27.8356 26.6874 27.5 26.6875C26.9199 26.6875 26.3635 26.457 25.9532 26.0468C25.543 25.6365 25.3125 25.0801 25.3125 24.5L25.3147 24.3993C25.3297 24.0726 25.4178 23.7533 25.5725 23.4651C25.7272 23.1769 25.9446 22.927 26.2086 22.734C26.4726 22.5409 26.7766 22.4094 27.0982 22.3494C27.4197 22.2893 27.7506 22.3021 28.0666 22.3868L29.6875 20.7659V14.6562C29.6873 14.5125 29.7153 14.3701 29.7701 14.2372C29.8249 14.1044 29.9054 13.9836 30.0069 13.8818L34.3819 9.50683C34.535 9.35397 34.7299 9.24993 34.9421 9.20788C35.1544 9.16582 35.3743 9.18765 35.5741 9.27058ZM36.8909 20.125L39.0784 17.9375H35.1563C34.8662 17.9375 34.588 17.8222 34.3829 17.6171C34.1777 17.412 34.0625 17.1338 34.0625 16.8437V12.9215L31.875 15.109V20.125H36.8909ZM40.5047 22.6975C40.8821 25.4212 40.3945 28.1947 39.1108 30.6264C37.827 33.0581 35.812 35.0252 33.35 36.25C30.8881 37.4748 28.1037 37.8955 25.3898 37.4526C22.6759 37.0096 20.1697 35.7255 18.225 33.7815C16.2802 31.8375 14.9951 29.3318 14.5511 26.6181C14.1071 23.9044 14.5267 21.1198 15.7505 18.6574C16.9744 16.195 18.9407 14.1792 21.3719 12.8945C23.8031 11.6098 26.5764 11.1211 29.3003 11.4975L28.4625 12.3353C28.1158 12.682 27.8512 13.1021 27.6881 13.5646L27.5 13.5625C25.3288 13.5628 23.2069 14.2093 21.4044 15.4196C19.6019 16.63 18.2003 18.3494 17.3783 20.359C16.5563 22.3685 16.351 24.5773 16.7885 26.7039C17.226 28.8305 18.2865 30.7789 19.835 32.3007C21.3835 33.8226 23.35 34.8492 25.4839 35.2497C27.6178 35.6503 29.8226 35.4066 31.8176 34.5499C33.8126 33.6931 35.5075 32.262 36.6864 30.4388C37.8653 28.6155 38.4749 26.4827 38.4375 24.3118C38.8983 24.1489 39.3168 23.8851 39.6625 23.5396L40.5025 22.6975H40.5047ZM27.5 16.8437C25.9857 16.8437 24.5055 17.2927 23.2464 18.134C21.9874 18.9753 21.006 20.171 20.4266 21.57C19.8471 22.969 19.6955 24.5085 19.9909 25.9936C20.2863 27.4788 21.0155 28.843 22.0862 29.9137C23.157 30.9845 24.5212 31.7137 26.0064 32.0091C27.4915 32.3045 29.0309 32.1529 30.4299 31.5734C31.8289 30.9939 33.0247 30.0126 33.866 28.7535C34.7072 27.4945 35.1563 26.0142 35.1563 24.5H32.9688C32.9688 25.5816 32.648 26.6389 32.0471 27.5382C31.4462 28.4376 30.5921 29.1385 29.5928 29.5524C28.5935 29.9663 27.4939 30.0746 26.4331 29.8636C25.3723 29.6526 24.3978 29.1318 23.633 28.3669C22.8682 27.6021 22.3474 26.6277 22.1363 25.5669C21.9253 24.506 22.0336 23.4064 22.4475 22.4072C22.8615 21.4079 23.5624 20.5538 24.4617 19.9529C25.3611 19.3519 26.4184 19.0312 27.5 19.0312V16.8437Z" fill="black"/>
</g>
<defs>
<clipPath id="clip0_463_32">
<rect width="45" height="40" fill="white"/>
</clipPath>
</defs>
</svg>
