<svg width="30" height="31" viewBox="0 0 30 31" fill="none" xmlns="http://www.w3.org/2000/svg">
<rect y="0.5" width="30" height="30" rx="3" fill="#323232"/>
<path d="M5.83203 9.81242C5.83203 9.02229 6.14591 8.26453 6.70461 7.70583C7.26331 7.14713 8.02107 6.83325 8.8112 6.83325H16.1445C16.9347 6.83325 17.6924 7.14713 18.2511 7.70583C18.8098 8.26453 19.1237 9.02229 19.1237 9.81242V11.8749H21.1862C21.5774 11.8749 21.9648 11.952 22.3263 12.1017C22.6877 12.2514 23.0161 12.4709 23.2928 12.7475C23.5694 13.0241 23.7889 13.3526 23.9386 13.714C24.0883 14.0755 24.1654 14.4629 24.1654 14.8541V22.1874C24.1654 22.5786 24.0883 22.966 23.9386 23.3275C23.7889 23.6889 23.5694 24.0174 23.2928 24.294C23.0161 24.5706 22.6877 24.7901 22.3263 24.9398C21.9648 25.0895 21.5774 25.1666 21.1862 25.1666H13.8529C13.4616 25.1666 13.0742 25.0895 12.7128 24.9398C12.3513 24.7901 12.0229 24.5706 11.7463 24.294C11.4696 24.0174 11.2502 23.6889 11.1005 23.3275C10.9508 22.966 10.8737 22.5786 10.8737 22.1874V20.1249H8.8112C8.02107 20.1249 7.26331 19.811 6.70461 19.2523C6.14591 18.6936 5.83203 17.9359 5.83203 17.1458V9.81242ZM17.7487 9.81242C17.7487 9.38697 17.5797 8.97894 17.2788 8.6781C16.978 8.37726 16.57 8.20825 16.1445 8.20825H8.8112C8.38575 8.20825 7.97772 8.37726 7.67688 8.6781C7.37604 8.97894 7.20703 9.38697 7.20703 9.81242V17.1458C7.20703 18.0313 7.9257 18.7499 8.8112 18.7499H10.8737V14.8541C10.8736 14.5583 10.9174 14.2642 11.0039 13.9814C11.1916 13.3721 11.5694 12.8389 12.0821 12.4599C12.5948 12.0808 13.2153 11.8758 13.8529 11.8749H17.7487V9.81242ZM12.2487 18.3466V18.7499H13.5687L17.7487 14.5699V13.2499H17.3454L12.2487 18.3466ZM15.402 13.2499H13.8529C13.7916 13.2498 13.7304 13.2532 13.6695 13.26L12.2579 14.6708C12.2514 14.7316 12.2483 14.7928 12.2487 14.8541V16.4033L15.402 13.2499ZM19.1237 13.2499V17.1458C19.1237 17.9359 18.8098 18.6936 18.2511 19.2523C17.6924 19.811 16.9347 20.1249 16.1445 20.1249H12.2487V22.1874C12.2487 23.0729 12.9674 23.7916 13.8529 23.7916H21.1862C21.6116 23.7916 22.0197 23.6226 22.3205 23.3217C22.6214 23.0209 22.7904 22.6129 22.7904 22.1874V14.8541C22.7904 14.4286 22.6214 14.0206 22.3205 13.7198C22.0197 13.4189 21.6116 13.2499 21.1862 13.2499H19.1237ZM15.512 18.7499H16.1445C16.57 18.7499 16.978 18.5809 17.2788 18.2801C17.5797 17.9792 17.7487 17.5712 17.7487 17.1458V16.5133L15.512 18.7499Z" fill="white"/>
</svg>
