<svg width="30" height="30" viewBox="0 0 30 30" fill="none" xmlns="http://www.w3.org/2000/svg">
<rect width="30" height="30" rx="3" fill="#323232"/>
<path d="M15.0013 15.0001C13.993 15.0001 13.1298 14.6411 12.4117 13.923C11.6937 13.2049 11.3346 12.3417 11.3346 11.3334C11.3346 10.3251 11.6937 9.46189 12.4117 8.74383C13.1298 8.02578 13.993 7.66675 15.0013 7.66675C16.0096 7.66675 16.8728 8.02578 17.5909 8.74383C18.3089 9.46189 18.668 10.3251 18.668 11.3334C18.668 12.3417 18.3089 13.2049 17.5909 13.923C16.8728 14.6411 16.0096 15.0001 15.0013 15.0001ZM7.66797 22.3334V19.7667C7.66797 19.2473 7.8018 18.7697 8.06947 18.334C8.33652 17.8989 8.69158 17.5667 9.13464 17.3376C10.0819 16.864 11.0444 16.5086 12.0221 16.2715C12.9999 16.035 13.993 15.9167 15.0013 15.9167C16.0096 15.9167 17.0027 16.035 17.9805 16.2715C18.9582 16.5086 19.9207 16.864 20.868 17.3376C21.311 17.5667 21.6661 17.8989 21.9331 18.334C22.2008 18.7697 22.3346 19.2473 22.3346 19.7667V22.3334H7.66797Z" fill="white"/>
</svg>
