<svg width="45" height="40" viewBox="0 0 45 40" fill="none" xmlns="http://www.w3.org/2000/svg">
<path fill-rule="evenodd" clip-rule="evenodd" d="M16.5039 2.00015C21.2151 2.01683 25.8418 3.56297 28.9153 7.11785C32.1344 10.8411 33.8083 15.8667 32.6143 20.6334C31.4449 25.3021 27.3981 28.4056 23.0547 30.5158C18.6758 32.6434 13.6483 34.0568 9.24011 31.9899C4.7955 29.906 2.46921 25.178 1.46063 20.3909C0.477536 15.7247 0.95736 10.7264 3.98132 7.02956C6.97171 3.37375 11.7684 1.98338 16.5039 2.00015Z" fill="#FFF507"/>
<g clip-path="url(#clip0_463_74)">
<path d="M34.5908 9.24805C34.7275 9.32617 34.8398 9.43848 34.9277 9.58496C35.0156 9.73145 35.0596 9.8877 35.0596 10.0537C35.0596 10.1318 35.0498 10.2051 35.0303 10.2734C35.0107 10.3418 34.9863 10.4102 34.957 10.4785L24.6006 31.2061C24.5127 31.3916 24.376 31.5283 24.1904 31.6162L21.6562 32.8906C21.3438 33.0469 21.0068 33.125 20.6455 33.125H20.5137C20.4746 33.125 20.4258 33.1201 20.3672 33.1104L19.6787 34.4873C19.6006 34.6436 19.4883 34.7656 19.3418 34.8535C19.1953 34.9414 19.0293 34.9902 18.8438 35C18.5898 35 18.3701 34.9072 18.1846 34.7217C17.999 34.5361 17.9062 34.3164 17.9062 34.0625C17.9062 33.9453 17.9404 33.7988 18.0088 33.623C18.0771 33.4473 18.1553 33.2666 18.2432 33.0811C18.3311 32.8955 18.4287 32.7148 18.5361 32.5391C18.6436 32.3633 18.7168 32.2266 18.7559 32.1289C18.502 31.7383 18.375 31.3135 18.375 30.8545V28.4375C18.375 28.2812 18.4092 28.1396 18.4775 28.0127L26.915 11.1377L25.9629 10.6689L22.4912 17.6123C22.4131 17.7686 22.3008 17.8906 22.1543 17.9785C22.0078 18.0664 21.8418 18.1152 21.6562 18.125C21.4023 18.125 21.1826 18.0322 20.9971 17.8467C20.8115 17.6611 20.7188 17.4414 20.7188 17.1875C20.7188 17.0605 20.7529 16.9189 20.8213 16.7627L24.3223 9.76074C24.4785 9.44824 24.6885 9.2041 24.9521 9.02832C25.2158 8.85254 25.5234 8.75977 25.875 8.75C26.2168 8.75 26.5391 8.83301 26.8418 8.99902C27.1445 9.16504 27.4473 9.32129 27.75 9.46777L28.79 7.3877C28.8682 7.22168 28.9805 7.09473 29.127 7.00684C29.2734 6.91895 29.4395 6.875 29.625 6.875C29.752 6.875 29.8594 6.89453 29.9473 6.93359C30.0645 6.69922 30.1768 6.46973 30.2842 6.24512C30.3916 6.02051 30.5186 5.81055 30.665 5.61523C30.8115 5.41992 30.9873 5.27344 31.1924 5.17578C31.3975 5.07812 31.6562 5.01953 31.9688 5C32.2812 5 32.5791 5.07324 32.8623 5.21973L34.2393 5.9082C34.5518 6.06445 34.7959 6.26953 34.9717 6.52344C35.1475 6.77734 35.2402 7.08984 35.25 7.46094C35.25 7.79297 35.1768 8.10059 35.0303 8.38379C34.8838 8.66699 34.7373 8.95508 34.5908 9.24805ZM31.6318 7.76855L32.9062 8.39844L33.3311 7.54883L32.0566 6.91895L31.6318 7.76855ZM32.8623 10.4785L30.0498 9.07227L20.25 28.6572V30.8545C20.25 30.9619 20.2891 31.0547 20.3672 31.1328C20.4453 31.2109 20.5381 31.25 20.6455 31.25C20.6846 31.25 20.7627 31.2256 20.8799 31.1768C20.9971 31.1279 21.1387 31.0645 21.3047 30.9863C21.4707 30.9082 21.6416 30.8252 21.8174 30.7373C21.9932 30.6494 22.1689 30.5566 22.3447 30.459C22.5205 30.3613 22.667 30.2832 22.7842 30.2246C22.9014 30.166 22.9941 30.1172 23.0625 30.0781L32.8623 10.4785ZM35.25 16.25C35.7676 16.25 36.251 16.3477 36.7002 16.543C37.1494 16.7383 37.5498 17.0068 37.9014 17.3486C38.2529 17.6904 38.5215 18.0859 38.707 18.5352C38.8926 18.9844 38.9902 19.4727 39 20C39 20.5176 38.9023 21.001 38.707 21.4502C38.5117 21.8994 38.2432 22.2998 37.9014 22.6514C37.5596 23.0029 37.1641 23.2715 36.7148 23.457C36.2656 23.6426 35.7773 23.7402 35.25 23.75H31.0312L31.9688 21.875H35.25C35.5137 21.875 35.7578 21.8262 35.9824 21.7285C36.207 21.6309 36.4023 21.499 36.5684 21.333C36.7344 21.167 36.8711 20.9668 36.9785 20.7324C37.0859 20.498 37.1348 20.2539 37.125 20C37.125 19.7363 37.0762 19.4922 36.9785 19.2676C36.8809 19.043 36.749 18.8477 36.583 18.6816C36.417 18.5156 36.2168 18.3789 35.9824 18.2715C35.748 18.1641 35.5039 18.1152 35.25 18.125C34.9961 18.125 34.7764 18.0322 34.5908 17.8467C34.4053 17.6611 34.3125 17.4414 34.3125 17.1875C34.3125 16.9336 34.4053 16.7139 34.5908 16.5283C34.7764 16.3428 34.9961 16.25 35.25 16.25ZM10.875 28.4375C10.875 29.082 10.9971 29.6875 11.2412 30.2539C11.4854 30.8203 11.8174 31.3184 12.2373 31.748C12.6572 32.1777 13.1553 32.5146 13.7314 32.7588C14.3076 33.0029 14.918 33.125 15.5625 33.125H16.207C16.1582 33.2715 16.1191 33.4229 16.0898 33.5791C16.0605 33.7354 16.041 33.8965 16.0312 34.0625C16.0312 34.2285 16.0459 34.3896 16.0752 34.5459C16.1045 34.7021 16.1484 34.8535 16.207 35H15.5625C14.6543 35 13.8047 34.8291 13.0137 34.4873C12.2227 34.1455 11.5293 33.6768 10.9336 33.0811C10.3379 32.4854 9.86914 31.792 9.52734 31.001C9.18555 30.21 9.00977 29.3555 9 28.4375C9 27.5293 9.1709 26.6797 9.5127 25.8887C9.85449 25.0977 10.3232 24.4043 10.9189 23.8086C11.5146 23.2129 12.208 22.7441 12.999 22.4023C13.79 22.0605 14.6445 21.8848 15.5625 21.875H18.8438L17.9062 23.75H15.5625C14.918 23.75 14.3125 23.8721 13.7461 24.1162C13.1797 24.3604 12.6816 24.6973 12.252 25.127C11.8223 25.5566 11.4854 26.0547 11.2412 26.6211C10.9971 27.1875 10.875 27.793 10.875 28.4375Z" fill="black"/>
</g>
<defs>
<clipPath id="clip0_463_74">
<rect width="30" height="30" fill="white" transform="translate(9 5)"/>
</clipPath>
</defs>
</svg>
