<svg width="30" height="30" viewBox="0 0 30 30" fill="none" xmlns="http://www.w3.org/2000/svg">
<rect width="30" height="30" rx="3" fill="#323232"/>
<path d="M19.3542 5.83325H23.5287L23.6204 5.84609L23.7111 5.87175L23.7661 5.89559C23.8395 5.92675 23.9064 5.9735 23.9669 6.03309L24.0036 6.07342L24.0439 6.12567L24.0934 6.20817L24.1291 6.29067L24.1466 6.34934L24.1594 6.408L24.1676 6.49509V10.6494C24.1676 10.8236 24.1014 10.9913 23.9825 11.1186C23.8636 11.2458 23.7008 11.3232 23.527 11.3351C23.3532 11.347 23.1814 11.2924 23.0463 11.1825C22.9112 11.0726 22.8228 10.9155 22.7991 10.7429L22.7926 10.6494V8.179L16.8893 14.0823C16.7729 14.1988 16.6186 14.2696 16.4544 14.2818C16.2902 14.2941 16.1271 14.2471 15.9946 14.1493L15.9176 14.0833L13.1401 11.4158L7.9243 16.6307C7.80163 16.7537 7.63694 16.8257 7.46334 16.8322C7.28973 16.8387 7.1201 16.7793 6.98853 16.6659C6.85697 16.5524 6.77323 16.3934 6.75416 16.2207C6.73508 16.048 6.78209 15.8745 6.88572 15.7351L6.95264 15.6581L12.6543 9.95642C12.7708 9.84012 12.9252 9.7695 13.0894 9.75739C13.2536 9.74528 13.4166 9.79248 13.549 9.89042L13.626 9.95642L16.4035 12.6239L21.8191 7.20825H19.3533C19.1873 7.20802 19.027 7.14776 18.902 7.03858C18.777 6.9294 18.6957 6.77869 18.6731 6.61425L18.6667 6.52075C18.6667 6.35462 18.7269 6.19411 18.8361 6.0689C18.9453 5.94369 19.0961 5.86226 19.2607 5.83967L19.3551 5.83325H19.3542ZM7.43847 19.5833C7.62081 19.5833 7.79568 19.6557 7.92461 19.7846C8.05354 19.9135 8.12597 20.0884 8.12597 20.2708V23.4791C8.12597 23.6614 8.05354 23.8363 7.92461 23.9652C7.79568 24.0942 7.62081 24.1666 7.43847 24.1666C7.25613 24.1666 7.08127 24.0942 6.95234 23.9652C6.8234 23.8363 6.75097 23.6614 6.75097 23.4791V20.2708C6.75097 20.0884 6.8234 19.9135 6.95234 19.7846C7.08127 19.6557 7.25613 19.5833 7.43847 19.5833V19.5833ZM12.7093 16.6041C12.7093 16.4217 12.6369 16.2469 12.5079 16.1179C12.379 15.989 12.2041 15.9166 12.0218 15.9166C11.8395 15.9166 11.6646 15.989 11.5357 16.1179C11.4067 16.2469 11.3343 16.4217 11.3343 16.6041V23.4791C11.3343 23.6614 11.4067 23.8363 11.5357 23.9652C11.6646 24.0942 11.8395 24.1666 12.0218 24.1666C12.2041 24.1666 12.379 24.0942 12.5079 23.9652C12.6369 23.8363 12.7093 23.6614 12.7093 23.4791V16.6041ZM16.6051 17.7499C16.7875 17.7499 16.9623 17.8224 17.0913 17.9513C17.2202 18.0802 17.2926 18.2551 17.2926 18.4374V23.4791C17.2926 23.6614 17.2202 23.8363 17.0913 23.9652C16.9623 24.0942 16.7875 24.1666 16.6051 24.1666C16.4228 24.1666 16.2479 24.0942 16.119 23.9652C15.9901 23.8363 15.9176 23.6614 15.9176 23.4791V18.4374C15.9176 18.2551 15.9901 18.0802 16.119 17.9513C16.2479 17.8224 16.4228 17.7499 16.6051 17.7499ZM21.876 13.8541C21.876 13.6717 21.8035 13.4969 21.6746 13.3679C21.5457 13.239 21.3708 13.1666 21.1885 13.1666C21.0061 13.1666 20.8313 13.239 20.7023 13.3679C20.5734 13.4969 20.501 13.6717 20.501 13.8541V23.4791C20.501 23.6614 20.5734 23.8363 20.7023 23.9652C20.8313 24.0942 21.0061 24.1666 21.1885 24.1666C21.3708 24.1666 21.5457 24.0942 21.6746 23.9652C21.8035 23.8363 21.876 23.6614 21.876 23.4791V13.8541Z" fill="white"/>
</svg>
