<svg width="45" height="40" viewBox="0 0 45 40" fill="none" xmlns="http://www.w3.org/2000/svg">
<path fill-rule="evenodd" clip-rule="evenodd" d="M20.5008 1.00928C24.7718 0.837658 28.7797 3.06486 31.6951 6.19075C34.5111 9.20995 35.6067 13.2599 35.7741 17.3851C35.9504 21.7265 35.6816 26.4214 32.6424 29.5266C29.5821 32.6533 24.875 33.0776 20.5008 32.9898C16.2353 32.9043 11.8397 32.0796 8.83669 29.0492C5.84452 26.0297 4.77957 21.6282 5.03706 17.3851C5.27918 13.3952 7.42704 9.96182 10.1714 7.05563C13.0189 4.04013 16.3566 1.1758 20.5008 1.00928Z" fill="#FFF507"/>
<path d="M42.2314 31.752C42.3682 31.9766 42.4707 32.2061 42.5391 32.4404C42.6074 32.6748 42.6416 32.9238 42.6416 33.1875C42.6416 33.5781 42.5684 33.9443 42.4219 34.2861C42.2754 34.6279 42.0752 34.9258 41.8213 35.1797C41.5674 35.4336 41.2695 35.6338 40.9277 35.7803C40.5859 35.9268 40.2197 36 39.8291 36H20.1855C19.7949 36 19.4287 35.9268 19.0869 35.7803C18.7451 35.6338 18.4473 35.4336 18.1934 35.1797C17.9395 34.9258 17.7393 34.6279 17.5928 34.2861C17.4463 33.9443 17.373 33.5781 17.373 33.1875C17.373 32.9238 17.4023 32.6748 17.4609 32.4404C17.5195 32.2061 17.6221 31.9766 17.7686 31.752L26.1035 17.2207C26.2012 17.084 26.25 16.918 26.25 16.7227V7.875H24.375V6H35.625V7.875H33.75V16.7227C33.75 16.9082 33.7988 17.0791 33.8965 17.2354L42.2314 31.752ZM28.125 16.7227C28.125 17.2402 27.9932 17.7236 27.7295 18.1729L22.8809 26.625H37.1191L32.2705 18.1729C32.0068 17.7236 31.875 17.2402 31.875 16.7227V7.875H28.125V16.7227Z" fill="black"/>
</svg>
