<svg width="123" height="40" viewBox="0 0 123 40" fill="none" xmlns="http://www.w3.org/2000/svg">
<g clip-path="url(#clip0_476_41)">
<path d="M118.656 24.4457L122.038 26.7003C120.94 28.3169 118.315 31.0907 113.776 31.0907C108.14 31.0907 103.942 26.73 103.942 21.1826C103.942 15.2795 108.184 11.2748 113.301 11.2748C118.448 11.2748 120.97 15.3684 121.785 17.5784L122.23 18.7057L108.97 24.1936C109.979 26.1812 111.551 27.1898 113.776 27.1898C116.001 27.1898 117.543 26.0922 118.656 24.4457V24.4457ZM108.259 20.8714L117.113 17.1929C116.624 15.9619 115.17 15.0869 113.435 15.0869C111.225 15.0869 108.155 17.0448 108.259 20.8714Z" fill="#FF302F"/>
<path d="M97.5498 1.17407H101.821V30.186H97.5498V1.17383V1.17407Z" fill="#20B15A"/>
<path d="M90.8153 12.046H94.9386V29.6667C94.9386 36.9788 90.6224 39.9898 85.52 39.9898C80.7146 39.9898 77.8224 36.7564 76.7395 34.1312L80.5217 32.5588C81.2038 34.1755 82.8503 36.0891 85.52 36.0891C88.7979 36.0891 90.8153 34.0569 90.8153 30.26V28.8362H90.6669C89.6879 30.0226 87.8191 31.0905 85.446 31.0905C80.4919 31.0905 75.9531 26.7743 75.9531 21.2124C75.9531 15.6205 80.4919 11.26 85.446 11.26C87.8043 11.26 89.6879 12.3131 90.6669 13.47H90.8153V12.0462V12.046ZM91.1117 21.2124C91.1117 17.7119 88.7831 15.1607 85.8167 15.1607C82.8205 15.1607 80.2991 17.7119 80.2991 21.2124C80.2991 24.6681 82.8205 27.1748 85.8167 27.1748C88.7834 27.1898 91.1119 24.6681 91.1119 21.2124H91.1117Z" fill="#3686F7"/>
<path d="M52.5042 21.1381C52.5042 26.8485 48.0547 31.0459 42.5963 31.0459C37.1382 31.0459 32.6885 26.8338 32.6885 21.1381C32.6885 15.3981 37.1382 11.2155 42.5963 11.2155C48.0547 11.2155 52.5042 15.3981 52.5042 21.1381ZM48.1732 21.1381C48.1732 17.5785 45.5923 15.1309 42.5963 15.1309C39.6004 15.1309 37.0194 17.5785 37.0194 21.1381C37.0194 24.6681 39.6004 27.1452 42.5963 27.1452C45.5925 27.1452 48.1732 24.6681 48.1732 21.1381Z" fill="#FF302F"/>
<path d="M74.1438 21.1826C74.1438 26.8931 69.6941 31.0905 64.236 31.0905C58.7777 31.0905 54.3281 26.8929 54.3281 21.1826C54.3281 15.4426 58.7777 11.2748 64.236 11.2748C69.6941 11.2748 74.1438 15.4279 74.1438 21.1826V21.1826ZM69.7979 21.1826C69.7979 17.6231 67.2172 15.1755 64.221 15.1755C61.225 15.1755 58.6441 17.6231 58.6441 21.1826C58.6441 24.7126 61.225 27.1898 64.221 27.1898C67.2319 27.1898 69.7979 24.6979 69.7979 21.1826Z" fill="#FFBA40"/>
<path d="M16.4022 26.7447C10.1875 26.7447 5.3227 21.7314 5.3227 15.5166C5.3227 9.30211 10.1875 4.28878 16.4022 4.28878C19.7544 4.28878 22.2015 5.60878 24.011 7.29973L26.9925 4.31854C24.471 1.90093 21.1041 0.0614014 16.4022 0.0614014C7.88866 0.0616395 0.724609 7.0033 0.724609 15.5166C0.724609 24.0304 7.88866 30.9719 16.4022 30.9719C21.0003 30.9719 24.471 29.459 27.1853 26.6409C29.9737 23.8524 30.8339 19.9366 30.8339 16.7626C30.8339 15.7688 30.7153 14.7454 30.5818 13.989H16.4022V18.1124H26.5029C26.2063 20.6933 25.3906 22.4583 24.1891 23.6595C22.7356 25.1281 20.4368 26.7447 16.4022 26.7447V26.7447Z" fill="#3686F7"/>
</g>
<defs>
<clipPath id="clip0_476_41">
<rect width="121.92" height="40" fill="white" transform="translate(0.540039)"/>
</clipPath>
</defs>
</svg>
