<svg width="45" height="40" viewBox="0 0 45 40" fill="none" xmlns="http://www.w3.org/2000/svg">
<path fill-rule="evenodd" clip-rule="evenodd" d="M16.5039 2.00015C21.2151 2.01683 25.8418 3.56297 28.9153 7.11785C32.1344 10.8411 33.8083 15.8667 32.6143 20.6334C31.4449 25.3021 27.3981 28.4056 23.0547 30.5158C18.6758 32.6434 13.6483 34.0568 9.24011 31.9899C4.7955 29.906 2.46921 25.178 1.46063 20.3909C0.477536 15.7247 0.95736 10.7264 3.98132 7.02956C6.97171 3.37375 11.7684 1.98338 16.5039 2.00015Z" fill="#FFF507"/>
<path d="M40.25 33.25L34.6425 27.6325M37.75 20.125C37.75 22.9429 36.6306 25.6454 34.638 27.638C32.6454 29.6306 29.9429 30.75 27.125 30.75C24.3071 30.75 21.6046 29.6306 19.612 27.638C17.6194 25.6454 16.5 22.9429 16.5 20.125C16.5 17.3071 17.6194 14.6046 19.612 12.612C21.6046 10.6194 24.3071 9.5 27.125 9.5C29.9429 9.5 32.6454 10.6194 34.638 12.612C36.6306 14.6046 37.75 17.3071 37.75 20.125V20.125Z" stroke="#181818" stroke-width="2" stroke-linecap="round"/>
</svg>
