<svg width="45" height="40" viewBox="0 0 45 40" fill="none" xmlns="http://www.w3.org/2000/svg">
<g clip-path="url(#clip0_392_20)">
<path fill-rule="evenodd" clip-rule="evenodd" d="M7.02616 7.777C10.2166 4.34382 14.8993 2.81093 19.3703 2.76058C23.6887 2.71194 27.402 4.7261 30.4488 7.51319C33.6553 10.4464 36.7668 13.9746 36.6058 18.527C36.4437 23.1109 33.0937 27.0608 29.6398 30.3907C26.2718 33.6377 22.2802 36.463 17.8088 36.6487C13.3535 36.8339 9.41539 34.5473 6.61472 31.3473C3.98124 28.3383 3.21893 24.245 3.29195 20.062C3.36771 15.7217 3.93046 11.1082 7.02616 7.777Z" fill="#FFF507"/>
<path d="M29.9258 10.7087C30.1578 10.7087 30.3804 10.8009 30.5445 10.965C30.7086 11.1291 30.8008 11.3517 30.8008 11.5837V15.0837C30.8008 15.3158 30.7086 15.5384 30.5445 15.7025C30.3804 15.8666 30.1578 15.9587 29.9258 15.9587C29.6937 15.9587 29.4712 15.8666 29.3071 15.7025C29.143 15.5384 29.0508 15.3158 29.0508 15.0837V11.5837C29.0508 11.3517 29.143 11.1291 29.3071 10.965C29.4712 10.8009 29.6937 10.7087 29.9258 10.7087V10.7087ZM23.1183 13.5262C23.1996 13.4448 23.2961 13.3801 23.4024 13.336C23.5087 13.2919 23.6227 13.2692 23.7378 13.2692C23.8529 13.2692 23.9668 13.2919 24.0731 13.336C24.1794 13.3801 24.276 13.4448 24.3573 13.5262L26.8318 16.0025C26.9154 16.0832 26.982 16.1798 27.0279 16.2865C27.0737 16.3933 27.0979 16.5081 27.0989 16.6243C27.0999 16.7404 27.0777 16.8557 27.0337 16.9632C26.9898 17.0707 26.9248 17.1684 26.8426 17.2506C26.7605 17.3327 26.6628 17.3977 26.5552 17.4417C26.4477 17.4857 26.3325 17.5078 26.2163 17.5068C26.1001 17.5058 25.9853 17.4817 25.8786 17.4358C25.7718 17.39 25.6752 17.3233 25.5945 17.2397L23.12 14.7652C22.956 14.6012 22.8638 14.3786 22.8638 14.1466C22.8638 13.9146 22.956 13.6921 23.12 13.528L23.1183 13.5262ZM36.7333 13.5262C36.8148 13.6075 36.8794 13.7041 36.9235 13.8104C36.9676 13.9167 36.9903 14.0306 36.9903 14.1457C36.9903 14.2608 36.9676 14.3748 36.9235 14.4811C36.8794 14.5874 36.8148 14.684 36.7333 14.7652L34.2553 17.2397C34.1746 17.3233 34.078 17.39 33.9713 17.4358C33.8645 17.4817 33.7497 17.5058 33.6335 17.5068C33.5173 17.5078 33.4021 17.4857 33.2946 17.4417C33.187 17.3977 33.0893 17.3327 33.0072 17.2506C32.925 17.1684 32.8601 17.0707 32.8161 16.9632C32.7721 16.8557 32.7499 16.7404 32.7509 16.6243C32.7519 16.5081 32.7761 16.3933 32.8219 16.2865C32.8678 16.1798 32.9345 16.0832 33.018 16.0025L35.4925 13.528C35.6566 13.364 35.8791 13.2718 36.1112 13.2718C36.3432 13.2718 36.5657 13.364 36.7298 13.528L36.7333 13.5262ZM20.3008 20.3337C20.3008 20.1017 20.393 19.8791 20.5571 19.715C20.7212 19.5509 20.9437 19.4587 21.1758 19.4587H24.6758C24.9078 19.4587 25.1304 19.5509 25.2945 19.715C25.4586 19.8791 25.5508 20.1017 25.5508 20.3337C25.5508 20.5658 25.4586 20.7884 25.2945 20.9525C25.1304 21.1166 24.9078 21.2087 24.6758 21.2087H21.1758C20.9437 21.2087 20.7212 21.1166 20.5571 20.9525C20.393 20.7884 20.3008 20.5658 20.3008 20.3337ZM31.9208 19.9837C31.6654 19.771 31.3547 19.6354 31.0251 19.5928C30.6954 19.5502 30.3605 19.6024 30.0594 19.7432C29.7583 19.884 29.5036 20.1076 29.325 20.3879C29.1463 20.6682 29.0512 20.9936 29.0508 21.326V37.2527C29.0508 38.8697 31.0545 39.6222 32.1185 38.406L35.664 34.353C35.9106 34.0718 36.2145 33.8465 36.5552 33.6923C36.896 33.5381 37.2658 33.4584 37.6398 33.4587H43.259C44.8953 33.4587 45.6373 31.4112 44.379 30.3647L31.9208 19.982V19.9837ZM30.8008 37.2562V21.326L43.259 31.7087H37.6398C37.016 31.7087 36.3994 31.842 35.8314 32.0997C35.2633 32.3575 34.757 32.7337 34.3463 33.2032L30.8008 37.2545V37.2562Z" fill="black"/>
</g>
<defs>
<clipPath id="clip0_392_20">
<rect width="45" height="40" fill="white"/>
</clipPath>
</defs>
</svg>
