<svg width="45" height="40" viewBox="0 0 45 40" fill="none" xmlns="http://www.w3.org/2000/svg">
<g clip-path="url(#clip0_392_43)">
<path fill-rule="evenodd" clip-rule="evenodd" d="M30.9748 5.5559C34.2313 8.65417 37.0496 12.5482 37.0308 17.006C37.0123 21.4248 34.1022 25.1054 30.8803 28.0779C27.8081 30.9123 24.0117 32.9272 19.7975 32.9054C15.5715 32.8834 11.6999 30.8512 8.56861 27.9621C5.28174 24.9294 2.38585 21.1579 2.25757 16.722C2.12729 12.2168 4.66355 8.17857 7.90763 5.10525C11.0588 2.12001 15.1553 0.271625 19.5318 0.357125C23.8608 0.441698 27.813 2.54773 30.9748 5.5559Z" fill="#FFF507"/>
<path fill-rule="evenodd" clip-rule="evenodd" d="M21.8451 15.0784C22.6552 14.2622 23.6188 13.6142 24.6804 13.1718C25.742 12.7295 26.8805 12.5014 28.0306 12.5008C30.3494 12.5008 32.5748 13.4269 34.2161 15.0784C35.8599 16.7345 36.7819 18.9736 36.7806 21.307C36.7806 25.3363 34.5464 28.9836 32.2189 31.6764C31.2381 32.8057 30.1747 33.8606 29.0376 34.8323C28.7088 35.1143 28.373 35.388 28.0306 35.6533C27.6883 35.3879 27.3526 35.1141 27.0236 34.8323C25.8865 33.8606 24.8231 32.8057 23.8423 31.6764C21.5148 28.9836 19.2806 25.3363 19.2806 21.307C19.2806 18.97 20.2037 16.73 21.8451 15.0784V15.0784ZM27.6106 37.159L28.0306 36.5633L28.4506 37.159C28.3276 37.2455 28.1809 37.2918 28.0306 37.2918C27.8803 37.2918 27.7336 37.2455 27.6106 37.159V37.159ZM27.6106 37.159L28.0306 36.5633L28.4506 37.159L28.4535 37.1576L28.4608 37.1525L28.4827 37.1357L28.5687 37.0737C28.6416 37.0198 28.7481 36.941 28.8823 36.8375C29.1506 36.6319 29.5312 36.3292 29.9855 35.9406C31.178 34.9213 32.293 33.8148 33.3214 32.6302C35.7335 29.8404 38.2389 25.8584 38.2389 21.3062C38.2389 18.5864 37.1641 15.976 35.2508 14.051C34.3051 13.0983 33.1803 12.342 31.9412 11.8257C30.702 11.3093 29.373 11.0432 28.0306 11.0425C26.6882 11.0431 25.3593 11.3091 24.1201 11.8253C22.881 12.3415 21.7562 13.0977 20.8104 14.0503C18.8952 15.9797 17.821 18.5884 17.8223 21.307C17.8223 25.8584 20.3277 29.8404 22.7398 32.6302C23.7682 33.8148 24.8832 34.9213 26.0757 35.9406C26.5307 36.3292 26.9106 36.6319 27.1789 36.8375C27.3105 36.9389 27.4435 37.0386 27.5778 37.1364L27.6011 37.1525L27.6077 37.1576L27.6106 37.159V37.159ZM25.1139 21.2508C25.1139 20.4773 25.4212 19.7354 25.9682 19.1884C26.5152 18.6414 27.2571 18.3341 28.0306 18.3341C28.8041 18.3341 29.546 18.6414 30.093 19.1884C30.64 19.7354 30.9473 20.4773 30.9473 21.2508C30.9473 22.0244 30.64 22.7662 30.093 23.3132C29.546 23.8602 28.8041 24.1675 28.0306 24.1675C27.2571 24.1675 26.5152 23.8602 25.9682 23.3132C25.4212 22.7662 25.1139 22.0244 25.1139 21.2508ZM28.0306 16.8758C26.8703 16.8758 25.7575 17.3367 24.937 18.1572C24.1165 18.9777 23.6556 20.0905 23.6556 21.2508C23.6556 22.4111 24.1165 23.5239 24.937 24.3444C25.7575 25.1649 26.8703 25.6258 28.0306 25.6258C29.1909 25.6258 30.3037 25.1649 31.1242 24.3444C31.9447 23.5239 32.4056 22.4111 32.4056 21.2508C32.4056 20.0905 31.9447 18.9777 31.1242 18.1572C30.3037 17.3367 29.1909 16.8758 28.0306 16.8758Z" fill="black"/>
</g>
<defs>
<clipPath id="clip0_392_43">
<rect width="45" height="40" fill="white"/>
</clipPath>
</defs>
</svg>
