<svg width="258" height="40" viewBox="0 0 258 40" fill="none" xmlns="http://www.w3.org/2000/svg">
<g clip-path="url(#clip0_476_40)">
<path d="M54.619 12.6378C52.0274 12.6378 50.3357 13.5827 50.3357 15.2362C50.3357 16.8897 52.0994 17.6378 54.6909 17.9527C58.3983 18.3071 63.2214 18.9764 63.2214 24.4882C63.2214 28.3858 59.838 31.1811 54.655 31.1811C51.3795 31.1811 48.2481 30.3937 45.4766 27.2835L47.6722 24.1338C49.5079 26.1417 52.0274 27.2835 54.583 27.2835C56.8146 27.2835 59.0102 26.5354 59.0102 24.5669C59.0102 22.5984 57.2825 21.9291 54.331 21.6535C50.5877 21.2992 46.1244 20.0787 46.1244 15.3937C46.1244 10.7086 50.7316 8.93699 54.475 8.93699C57.2825 8.85825 60.018 9.8425 62.2136 11.7323L60.018 14.5275C58.5423 13.2283 56.5986 12.559 54.619 12.6378ZM77.115 27.0472C79.2386 27.0472 81.6862 26.2598 82.946 24.7638L85.6815 27.559C83.5939 30 80.1385 31.1811 77.043 31.1811C70.4562 31.1811 66.2089 26.8504 66.2089 20.0787C66.2089 13.622 70.6002 8.97636 76.971 8.97636C82.874 8.97636 86.9413 12.6378 86.9413 19.9212C86.9413 20.5118 86.9053 21.1811 86.8693 21.811H70.6002C70.9241 25.0787 73.4077 27.0472 77.115 27.0472ZM76.971 12.874C73.9116 12.874 71.284 14.6457 70.6361 18.0709H82.838C82.5501 14.685 80.4624 12.874 76.971 12.874ZM106.378 18.7795C106.378 15.1181 104.434 13.0315 100.943 13.0315C99.3951 13.0315 97.9554 13.7008 96.8755 14.9212C95.7957 16.1417 95.2558 17.7953 95.2918 19.4882V30.7086H91.0446V9.48817H94.8959L95.1478 12.4409C96.8395 10.2362 99.2871 8.93699 101.915 8.97636C106.774 8.97636 110.553 12.1653 110.553 18.7795V30.7086H106.342L106.378 18.7795ZM136.217 30.6693H132.257L132.005 27.3228C130.422 29.8425 127.794 31.2992 125.059 31.1811C119.228 31.1811 114.8 27.0866 114.8 20.0787C114.8 12.874 119.156 8.97636 124.987 8.97636C127.434 8.97636 130.746 10.2362 132.041 12.7559V0.708643H136.289L136.217 30.6693ZM118.976 20.0394C118.976 24.3307 121.747 27.0472 125.311 27.0472C128.766 27.0472 131.609 23.937 131.609 20.0787C131.609 16.2204 128.802 13.1102 125.311 13.1102C121.747 13.1102 118.976 15.748 118.976 20.0394ZM144.027 0.0787197C144.711 -2.04712e-05 145.395 0.275571 145.863 0.787382C146.367 1.29919 146.655 2.04722 146.619 2.79525C146.511 4.33069 145.395 5.47242 144.027 5.47242C142.66 5.47242 141.508 4.29132 141.436 2.79525C141.436 2.04722 141.688 1.33856 142.192 0.787382C142.695 0.275571 143.343 0.0393496 144.027 0.0787197ZM146.115 30.6693H141.868V9.4488H146.115V30.6693ZM167.063 18.7795C167.063 15.1181 165.12 13.0315 161.628 13.0315C160.08 13.0315 158.641 13.7008 157.561 14.9212C156.481 16.1417 155.941 17.7953 155.977 19.4882V30.7086H151.766V9.48817H155.581L155.833 12.4409C157.525 10.2362 160.008 8.93699 162.6 8.97636C167.459 8.97636 171.238 12.1653 171.238 18.7795V30.7086H166.991C167.027 30.6693 167.063 18.7795 167.063 18.7795ZM180.885 12.9134C182.181 10.3937 185.492 8.93699 187.94 8.93699C193.735 8.93699 198.126 12.8346 198.126 20.0394C198.126 27.0866 193.411 31.1417 187.904 31.1417C185.384 31.1417 182.469 30 180.885 27.2835L180.633 30.6299H176.674V0.629898H180.885V12.9134ZM181.137 20.0394C181.101 21.9291 181.785 23.7401 183.008 25.0787C184.232 26.4173 185.888 27.126 187.58 27.0472C191.251 27.0472 193.914 24.3307 193.914 20.0394C193.914 15.748 191.215 13.0708 187.58 13.0708C185.888 12.9921 184.232 13.7008 183.008 15.0394C181.785 16.3779 181.101 18.189 181.137 20.0394ZM206.944 30.6693H202.733V0.669271H206.98L206.944 30.6693ZM216.698 20.9842C216.698 24.6063 218.606 27.0866 222.17 27.0866C223.681 27.0866 225.157 26.4173 226.201 25.2362C227.245 24.0157 227.821 22.3622 227.749 20.7086V9.4488H231.96V30.6693H228.18L227.929 27.7559C226.201 30.0394 223.645 31.2992 221.018 31.1811C216.087 31.1811 212.559 27.4409 212.559 21.063V9.48817H216.77L216.698 20.9842ZM247.329 27.0472C249.453 27.0472 251.9 26.2598 253.16 24.7638L255.896 27.559C253.808 30 250.353 31.1811 247.257 31.1811C240.67 31.1811 236.423 26.8504 236.423 20.0787C236.423 13.622 240.814 8.97636 247.185 8.97636C253.088 8.97636 257.155 12.6378 257.155 19.9212C257.155 20.5118 257.119 21.1811 257.083 21.811H240.778C241.138 25.0787 243.622 27.0472 247.329 27.0472ZM247.185 12.874C244.126 12.874 241.462 14.6457 240.85 18.0709H253.016C252.764 14.685 250.641 12.874 247.185 12.874Z" fill="#091E3F"/>
<path fill-rule="evenodd" clip-rule="evenodd" d="M31.1867 28.7008C30.2508 30.4724 28.7031 31.811 26.9034 32.3622C27.1554 31.378 27.2993 30.3937 27.2993 29.3701C27.2993 24.3307 24.1319 20.1575 19.8846 18.9764C20.7485 18.0315 21.8643 17.3622 23.0521 17.0079C24.8878 16.4567 26.8674 16.7323 28.5231 17.7953C32.0145 20.0394 33.2023 24.9213 31.1867 28.7008ZM17.581 37.3622C15.7094 37.3622 13.9097 36.5354 12.5779 35.1181C13.4778 34.8819 14.3056 34.4882 15.0975 34.0158C19.0568 31.4961 20.7845 26.378 19.5607 21.7717C22.5842 22.7165 24.8158 25.7874 24.8158 29.4094C24.8158 33.7795 21.5763 37.3622 17.581 37.3622ZM3.97544 28.7008C3.0396 26.8898 2.78764 24.7638 3.21957 22.7953C3.86745 23.5039 4.58733 24.1339 5.37919 24.6457C6.85493 25.5905 8.51064 26.063 10.2383 26.063C12.9019 26.063 15.4214 24.8819 17.2571 22.7559C18.013 26.1024 16.7172 29.7638 13.8737 31.5748C12.7939 32.2835 11.5341 32.6378 10.2743 32.6378C7.68278 32.6772 5.27121 31.1811 3.97544 28.7008ZM3.97544 11.4173C4.91127 9.64567 6.459 8.30709 8.25868 7.7559C8.00673 8.74016 7.86275 9.72441 7.86275 10.748C7.86275 15.748 11.0302 19.9606 15.2774 21.1417C13.0098 23.5433 9.48247 24.1339 6.63897 22.3228C4.98326 21.2598 3.75947 19.5276 3.25556 17.4803C2.75165 15.4331 3.00361 13.2677 3.97544 11.4173ZM17.581 2.79527C19.4527 2.79527 21.2524 3.62205 22.5842 5.03937C21.6843 5.27559 20.8565 5.66929 20.0646 6.14173C17.833 7.55905 16.2133 9.88189 15.5294 12.6378C15.0615 14.5276 15.0975 16.4961 15.6014 18.3858C12.5779 17.4409 10.3463 14.3701 10.3463 10.748C10.3463 6.33858 13.5857 2.79527 17.581 2.79527ZM31.1867 11.4173C32.1225 13.2283 32.3744 15.3543 31.9425 17.3228C31.2946 16.6142 30.5748 15.9843 29.7829 15.4724C27.5513 14.0551 24.9238 13.6614 22.4042 14.4094C20.6765 14.9213 19.1288 15.9449 17.905 17.3622C17.617 16.063 17.617 14.685 17.941 13.3858C18.4449 11.3386 19.6327 9.6063 21.3244 8.54331C22.9801 7.48031 24.9597 7.20472 26.7954 7.7559C28.6671 8.26772 30.2148 9.6063 31.1867 11.4173ZM33.3463 10.0394C32.0505 7.55906 29.9629 5.7874 27.4433 5.03937C26.8674 4.88189 26.2555 4.76378 25.6436 4.68504C23.8439 1.77165 20.8205 0 17.617 0C14.2696 0 11.3181 1.85039 9.59045 4.68504C6.38701 4.96063 3.47152 6.92913 1.85181 10C0.556036 12.4803 0.196099 15.3543 0.879979 18.1102C1.02395 18.7795 1.23992 19.4095 1.52787 20C0.124112 23.189 0.232093 26.9291 1.85181 30C3.50752 33.189 6.459 35.0394 9.55446 35.315C11.3541 38.2283 14.3776 40 17.617 40C20.9645 40 23.9159 38.1496 25.6436 35.315C28.8471 35.0394 31.7626 33.0709 33.3823 30C35.038 26.811 35.074 23.0709 33.7062 20C35.074 16.8898 34.966 13.1496 33.3463 10.0394Z" fill="#0092FF"/>
</g>
<defs>
<clipPath id="clip0_476_40">
<rect width="257" height="40" fill="white" transform="translate(0.540039)"/>
</clipPath>
</defs>
</svg>
