<svg width="45" height="40" viewBox="0 0 45 40" fill="none" xmlns="http://www.w3.org/2000/svg">
<path fill-rule="evenodd" clip-rule="evenodd" d="M20.5008 1.00928C24.7718 0.837658 28.7797 3.06486 31.6951 6.19075C34.5111 9.20995 35.6067 13.2599 35.7741 17.3851C35.9504 21.7265 35.6816 26.4214 32.6424 29.5266C29.5821 32.6533 24.875 33.0776 20.5008 32.9898C16.2353 32.9043 11.8397 32.0796 8.83669 29.0492C5.84452 26.0297 4.77957 21.6282 5.03706 17.3851C5.27918 13.3952 7.42704 9.96182 10.1714 7.05563C13.0189 4.04013 16.3566 1.1758 20.5008 1.00928Z" fill="#FFF507"/>
<path d="M33.5 18.375C34.5355 18.375 35.375 17.5355 35.375 16.5C35.375 15.4645 34.5355 14.625 33.5 14.625C32.4645 14.625 31.625 15.4645 31.625 16.5C31.625 17.5355 32.4645 18.375 33.5 18.375Z" stroke="black" stroke-width="1.75" stroke-linecap="round" stroke-linejoin="round"/>
<path d="M12.875 25.875L27.875 10.875H39.125V22.125L24.125 37.125L12.875 25.875Z" stroke="black" stroke-width="1.75" stroke-linecap="round" stroke-linejoin="round"/>
</svg>
