<svg width="45" height="40" viewBox="0 0 45 40" fill="none" xmlns="http://www.w3.org/2000/svg">
<path fill-rule="evenodd" clip-rule="evenodd" d="M18.3692 1.01039C22.7899 0.898501 27.4593 1.6592 30.5473 4.82453C33.6084 7.96227 34.1444 12.6225 33.9709 17.0027C33.8055 21.1793 32.5662 25.2885 29.6194 28.2529C26.6643 31.2257 22.5573 32.5263 18.3692 32.6975C13.973 32.8773 9.33477 32.2581 6.1597 29.2122C2.93499 26.1186 1.89017 21.4698 2.00897 17.0027C2.12435 12.6636 3.68829 8.45992 6.79226 5.42576C9.86257 2.4245 14.077 1.11902 18.3692 1.01039Z" fill="#FFF507"/>
<path d="M40.8125 21.4043C40.8125 21.3291 40.8125 21.2437 40.8091 21.1445C40.8057 20.8677 40.7988 20.5566 40.792 20.2251C40.7646 19.2715 40.7168 18.3213 40.6416 17.4258C40.5391 16.1919 40.3887 15.1631 40.1836 14.3906C39.9672 13.5845 39.543 12.8493 38.9534 12.2585C38.3638 11.6677 37.6294 11.242 36.8237 11.0239C35.8564 10.7642 33.9629 10.6035 31.2969 10.5044C30.0288 10.4565 28.6719 10.4258 27.3149 10.4087C26.8398 10.4019 26.3989 10.3984 26.0024 10.395H24.9976C24.6011 10.3984 24.1602 10.4019 23.6851 10.4087C22.3281 10.4258 20.9712 10.4565 19.7031 10.5044C17.0371 10.6069 15.1401 10.7676 14.1763 11.0239C13.3703 11.2414 12.6357 11.667 12.046 12.2579C11.4563 12.8487 11.0323 13.5842 10.8164 14.3906C10.6079 15.1631 10.4609 16.1919 10.3584 17.4258C10.2832 18.3213 10.2354 19.2715 10.208 20.2251C10.1978 20.5566 10.1943 20.8677 10.1909 21.1445C10.1909 21.2437 10.1875 21.3291 10.1875 21.4043V21.5957C10.1875 21.6709 10.1875 21.7563 10.1909 21.8555C10.1943 22.1323 10.2012 22.4434 10.208 22.7749C10.2354 23.7285 10.2832 24.6787 10.3584 25.5742C10.4609 26.8081 10.6113 27.8369 10.8164 28.6094C11.2539 30.2466 12.5391 31.5386 14.1763 31.9761C15.1401 32.2358 17.0371 32.3965 19.7031 32.4956C20.9712 32.5435 22.3281 32.5742 23.6851 32.5913C24.1602 32.5981 24.6011 32.6016 24.9976 32.605H26.0024C26.3989 32.6016 26.8398 32.5981 27.3149 32.5913C28.6719 32.5742 30.0288 32.5435 31.2969 32.4956C33.9629 32.3931 35.8599 32.2324 36.8237 31.9761C38.4609 31.5386 39.7461 30.25 40.1836 28.6094C40.3921 27.8369 40.5391 26.8081 40.6416 25.5742C40.7168 24.6787 40.7646 23.7285 40.792 22.7749C40.8022 22.4434 40.8057 22.1323 40.8091 21.8555C40.8091 21.7563 40.8125 21.6709 40.8125 21.5957V21.4043V21.4043ZM38.3516 21.582C38.3516 21.6538 38.3516 21.7324 38.3481 21.8247C38.3447 22.0913 38.3379 22.3853 38.3311 22.7031C38.3071 23.6123 38.2593 24.5215 38.1875 25.3657C38.0952 26.4663 37.9653 27.3687 37.8047 27.9736C37.5928 28.7632 36.9707 29.3887 36.1846 29.5972C35.4668 29.7886 33.6587 29.9424 31.2012 30.0347C29.957 30.0825 28.6172 30.1133 27.2808 30.1304C26.8125 30.1372 26.3784 30.1406 25.9888 30.1406H25.0112L23.7192 30.1304C22.3828 30.1133 21.0464 30.0825 19.7988 30.0347C17.3413 29.939 15.5298 29.7886 14.8154 29.5972C14.0293 29.3853 13.4072 28.7632 13.1953 27.9736C13.0347 27.3687 12.9048 26.4663 12.8125 25.3657C12.7407 24.5215 12.6963 23.6123 12.6689 22.7031C12.6587 22.3853 12.6553 22.0879 12.6519 21.8247C12.6519 21.7324 12.6484 21.6504 12.6484 21.582V21.418C12.6484 21.3462 12.6484 21.2676 12.6519 21.1753C12.6553 20.9087 12.6621 20.6147 12.6689 20.2969C12.6929 19.3877 12.7407 18.4785 12.8125 17.6343C12.9048 16.5337 13.0347 15.6313 13.1953 15.0264C13.4072 14.2368 14.0293 13.6113 14.8154 13.4028C15.5332 13.2114 17.3413 13.0576 19.7988 12.9653C21.043 12.9175 22.3828 12.8867 23.7192 12.8696C24.1875 12.8628 24.6216 12.8594 25.0112 12.8594H25.9888L27.2808 12.8696C28.6172 12.8867 29.9536 12.9175 31.2012 12.9653C33.6587 13.061 35.4702 13.2114 36.1846 13.4028C36.9707 13.6147 37.5928 14.2368 37.8047 15.0264C37.9653 15.6313 38.0952 16.5337 38.1875 17.6343C38.2593 18.4785 38.3037 19.3877 38.3311 20.2969C38.3413 20.6147 38.3447 20.9121 38.3481 21.1753C38.3481 21.2676 38.3516 21.3496 38.3516 21.418V21.582ZM22.458 26.0801L30.3877 21.4658L22.458 16.9199V26.0801Z" fill="#181818"/>
</svg>
